<svg xmlns="http://www.w3.org/2000/svg" xmlns:xlink="http://www.w3.org/1999/xlink" xml:space="preserve" x="0" y="0" version="1.1" viewBox="0 0 1080 1080"><switch><g><path d="M124 628.8c3 0 6.1.4 9.2 1.3 3.1.8 5.9 2.2 8.4 3.9 2.5 1.8 4.5 4.1 6.1 6.8 1.6 2.8 2.3 6.1 2.3 9.9 0 3.9-.8 7.2-2.3 10-1.6 2.8-3.6 5-6.1 6.8-2.5 1.7-5.3 3-8.4 3.8-3.1.8-6.1 1.2-9.2 1.2-3 0-6.1-.4-9.2-1.2-3.1-.8-5.9-2-8.4-3.8-2.5-1.7-4.5-4-6.1-6.8-1.6-2.8-2.3-6.1-2.3-10 0-3.8.8-7.1 2.3-9.9 1.6-2.8 3.6-5.1 6.1-6.8 2.5-1.8 5.3-3.1 8.4-3.9 3-.8 6.1-1.3 9.2-1.3zm0 10.3c-1.8 0-3.5.3-5.1.8-1.6.6-3 1.3-4.3 2.3-1.2 1-2.2 2.2-2.9 3.7-.7 1.4-1 3.1-1 4.9 0 1.8.3 3.4 1 4.9.7 1.4 1.6 2.7 2.9 3.7 1.2 1 2.7 1.8 4.3 2.3 1.6.6 3.3.8 5.1.8 1.9 0 3.6-.3 5.2-.8 1.6-.6 3-1.3 4.2-2.3 1.2-1 2.2-2.2 2.9-3.7.7-1.4 1-3.1 1-4.9 0-1.8-.3-3.4-1-4.9-.7-1.4-1.6-2.7-2.9-3.7-1.2-1-2.6-1.8-4.2-2.3-1.6-.5-3.4-.8-5.2-.8zm85.9 30.2c0 .7.3 1.2.8 1.4.5.2 1.2.3 1.9.4v1.2h-18V671c.5 0 1.1-.1 1.8-.2s1-.5 1-1.1-.7-1.7-2.1-3.3c-1.4-1.6-3.3-3.5-5.5-5.9s-4.7-4.9-7.5-7.8c-2.8-2.9-5.5-5.9-8.3-9.2l-.2.2v25.5c0 .7.2 1.2.7 1.4s1.1.3 1.8.4v1.2h-16.6V671c.6-.1 1.2-.2 1.7-.4s.7-.6.7-1.4v-36.9c0-.7-.3-1.2-.8-1.4-.5-.2-1.1-.3-1.8-.4v-1.2h23.1v1.2c-.5.1-.9.2-1.4.4-.5.2-.7.6-.7 1.4 0 .1.5.8 1.6 2s2.4 2.7 4.1 4.5c1.7 1.8 3.6 3.8 5.6 6 2.1 2.2 4.1 4.4 6.2 6.6v-19.1c0-.7-.3-1.2-.8-1.4-.5-.2-1.2-.3-1.9-.4v-1.2h17.1v1.2c-.8.1-1.4.2-1.9.4s-.8.6-.8 1.4v37zm57.9-5.7c1.3 0 2.1-.8 2.5-2.4h1.2v12.7h-1c-.3-.9-.7-1.4-1-1.6-.4-.1-.9-.2-1.7-.2h-43.3V671c.7-.1 1.3-.2 1.9-.4.5-.2.8-.6.8-1.4v-36.9c0-.7-.3-1.2-.8-1.4-.6-.2-1.2-.3-1.9-.4v-1.2h44.1c.4 0 .8-.1 1.2-.4.4-.3.6-.8.6-1.7h1.2v13h-1.2c0-1-.2-1.6-.6-1.9-.4-.3-.8-.4-1.2-.4h-28.4v7.9h18.3c.4 0 .8-.1 1.2-.4.4-.3.6-.9.6-1.8h1.2v12.6h-1.2c0-.9-.2-1.5-.6-1.8-.4-.3-.8-.4-1.2-.4h-18.3v9.6h27.6zm83.8 7.4c.2 0 .5 0 .8-.1.3-.1.5-.3.5-.8 0-.3-.1-.7-.3-1.2-.2-.5-.5-1.1-.8-1.8-.3-.6-.6-1.3-.9-1.9-.3-.6-.6-1.2-.8-1.7h-22.5c-.1.5-.3 1-.6 1.7-.3.6-.6 1.3-.9 1.9l-.9 1.8c-.3.6-.4 1-.4 1.2 0 .5.2.7.5.8.3.1.6.1.8.1v1.2h-14.6V671c.4 0 .8-.1 1.2-.2.4-.2.6-.4.8-.7 1.9-4.5 3.9-9 5.9-13.5 2-4.4 3.8-8.5 5.4-12 1.6-3.6 2.9-6.6 3.9-8.9 1-2.4 1.6-3.7 1.6-4 0-.6-.4-.9-1.3-1v-1.2h20.3v1.2c-.8.1-1.3.4-1.3 1 0 .2.3 1.1 1 2.6s1.6 3.4 2.7 5.7c1.1 2.3 2.3 4.8 3.6 7.6 1.3 2.8 2.7 5.6 4 8.4 1.3 2.8 2.6 5.4 3.7 7.9 1.2 2.5 2.1 4.6 2.8 6.3.1.3.4.6.8.7.4.2.8.2 1.2.2v1.2h-16.1V671zm-13-31.5-8 17h16.1l-8.1-17zm90 29.8c0 .7.3 1.2.8 1.4.5.2 1.2.3 1.9.4v1.2h-18V671c.5 0 1.1-.1 1.8-.2s1-.5 1-1.1-.7-1.7-2.1-3.3c-1.4-1.6-3.3-3.5-5.5-5.9s-4.7-4.9-7.5-7.8c-2.8-2.9-5.5-5.9-8.3-9.2l-.2.2v25.5c0 .7.2 1.2.7 1.4s1.1.3 1.8.4v1.2h-16.6V671c.6-.1 1.2-.2 1.7-.4s.7-.6.7-1.4v-36.9c0-.7-.3-1.2-.8-1.4-.5-.2-1.1-.3-1.8-.4v-1.2h23.1v1.2c-.5.1-.9.2-1.4.4-.5.2-.7.6-.7 1.4 0 .1.5.8 1.6 2s2.4 2.7 4.1 4.5c1.7 1.8 3.6 3.8 5.6 6 2.1 2.2 4.1 4.4 6.2 6.6v-19.1c0-.7-.3-1.2-.8-1.4-.5-.2-1.2-.3-1.9-.4v-1.2h17.1v1.2c-.8.1-1.4.2-1.9.4s-.8.6-.8 1.4v37zm17-37c0-.7-.2-1.2-.7-1.4s-1.1-.3-1.8-.4v-1.2h29.1c3.6 0 6.7.6 9.2 1.7s4.6 2.7 6.3 4.7 2.8 4.2 3.6 6.8c.7 2.6 1.1 5.3 1.1 8.2 0 2.9-.4 5.6-1.1 8.2-.7 2.6-1.9 4.9-3.6 6.8s-3.7 3.5-6.3 4.7-5.6 1.7-9.2 1.7H443V671c.7-.1 1.3-.2 1.8-.4s.7-.6.7-1.4v-36.9zm20 30.5c5.1 0 8.7-.9 10.9-2.7 2.2-1.8 3.3-4.9 3.3-9.4s-1.1-7.6-3.3-9.4c-2.2-1.8-5.8-2.7-10.9-2.7h-7v24.1h7zm95.6-42.3c4.1 0 8 .6 11.7 1.7 3.7 1.1 6.9 2.8 9.6 5 2.8 2.2 4.9 4.9 6.6 8.2 1.6 3.2 2.4 7 2.4 11.3s-.8 8-2.4 11.3c-1.6 3.2-3.8 6-6.6 8.2-2.8 2.2-6 3.8-9.6 4.9-3.7 1-7.6 1.6-11.7 1.6s-8-.5-11.7-1.6c-3.7-1-6.9-2.7-9.6-4.9-2.8-2.2-4.9-4.9-6.6-8.2-1.6-3.2-2.4-7-2.4-11.3s.8-8 2.4-11.3c1.6-3.2 3.8-6 6.6-8.2 2.8-2.2 6-3.9 9.6-5 3.6-1.2 7.6-1.7 11.7-1.7zm0 11.8c-2.1 0-4.2.3-6.1 1-1.9.6-3.6 1.6-5.1 2.8-1.5 1.2-2.6 2.7-3.5 4.5-.9 1.8-1.3 3.8-1.3 6.1s.4 4.3 1.3 6.1c.9 1.8 2 3.3 3.5 4.5 1.5 1.2 3.1 2.1 5.1 2.8 1.9.6 3.9 1 6.1 1s4.2-.3 6.1-1c1.9-.6 3.6-1.6 5.1-2.8 1.5-1.2 2.6-2.7 3.5-4.5.9-1.8 1.3-3.8 1.3-6.1s-.4-4.3-1.3-6.1c-.9-1.8-2-3.3-3.5-4.5-1.5-1.2-3.1-2.1-5.1-2.8-1.9-.6-4-1-6.1-1zm45.7-8.3c0-.5-.1-.8-.4-1.1-.3-.3-1.1-.5-2.3-.6v-1.2h23.4v1.2c-1.1.1-1.8.2-2.2.4-.4.2-.5.5-.5.8 0 .1.4.7 1.3 1.7.8 1 1.9 2.3 3.3 3.9s2.9 3.3 4.6 5.2c1.7 1.9 3.4 3.8 5.2 5.7 1.7 1.9 3.4 3.7 5.1 5.4 1.6 1.7 3 3.2 4.2 4.4V624c0-1.1-.7-1.7-2-1.7v-1.2h17.8v1.2c-1.2.1-2 .3-2.3.6-.3.3-.4.7-.4 1.1v45.3c0 .5.1.8.4 1.1.3.3 1.1.5 2.3.6v1.2h-18.5V671c.9 0 1.5-.1 1.8-.3s.4-.5.4-.8c0-.2-.1-.4-.3-.7-.2-.3-.6-.8-1.3-1.5-.6-.7-1.6-1.7-2.9-3.1-1.3-1.3-2.9-3.1-5-5.3-2.1-2.2-4.6-5-7.7-8.4-3-3.3-6.7-7.4-11-12.2v30.5c0 .5.1.8.4 1.1.3.3 1.1.5 2.3.6v1.2h-18.5V671c1.2-.1 2-.3 2.3-.6.3-.3.4-.7.4-1.1V624zm123.6 36.3c.5 0 .9-.2 1.2-.5.3-.4.5-1.1.6-2.2h1.2v16.8h-1.2c-.1-1-.3-1.7-.6-1.9-.3-.2-.6-.3-1.2-.3h-50.7V671c1.2-.1 2-.3 2.3-.6.3-.3.4-.7.4-1.1V624c0-.5-.1-.8-.4-1.1-.3-.3-1.1-.5-2.3-.6v-1.2h20v1.2c-1.2.1-2 .3-2.3.6-.3.3-.4.7-.4 1.1v36.3h33.4zm67.3-39.2v1.2c-.5 0-1 .2-1.3.5-.4.4-.7.8-1 1.2l-18.7 26.3v18.9c0 .5.1.8.4 1.1.3.3 1.1.5 2.3.6v1.2h-20V671c1.2-.1 2-.3 2.3-.6.3-.3.4-.7.4-1.1v-17.1l-18.6-26.6c-1-1.5-1.7-2.4-2-2.8-.3-.4-.7-.5-1.2-.5v-1.2h21.4v1.2c-.6 0-1.1.1-1.7.2-.5.1-.8.5-.8 1 0 .3.4 1 1.3 2.3.8 1.3 1.8 2.8 3 4.5 1.1 1.7 2.3 3.4 3.5 5.2 1.2 1.7 2.2 3.2 3 4.5.2-.3.6-.9 1.3-1.8.6-.9 1.4-1.9 2.2-3.1.8-1.2 1.7-2.4 2.6-3.7.9-1.3 1.8-2.5 2.5-3.6s1.4-2.1 1.9-2.9c.5-.8.8-1.3.8-1.4 0-.5-.2-.8-.7-1-.5-.1-1-.2-1.4-.2v-1.2h18.5zm63 7.7c3 0 6.1.4 9.2 1.3 3.1.8 5.9 2.2 8.4 3.9 2.5 1.8 4.5 4.1 6.1 6.8 1.6 2.8 2.3 6.1 2.3 9.9 0 3.9-.8 7.2-2.3 10-1.6 2.8-3.6 5-6.1 6.8-2.5 1.7-5.3 3-8.4 3.8-3.1.8-6.1 1.2-9.2 1.2-3 0-6.1-.4-9.2-1.2-3.1-.8-5.9-2-8.4-3.8-2.5-1.7-4.5-4-6.1-6.8-1.6-2.8-2.3-6.1-2.3-10 0-3.8.8-7.1 2.3-9.9 1.6-2.8 3.6-5.1 6.1-6.8 2.5-1.8 5.3-3.1 8.4-3.9 3.1-.8 6.1-1.3 9.2-1.3zm0 10.3c-1.8 0-3.5.3-5.1.8-1.6.6-3 1.3-4.3 2.3-1.2 1-2.2 2.2-2.9 3.7-.7 1.4-1 3.1-1 4.9 0 1.8.3 3.4 1 4.9.7 1.4 1.6 2.7 2.9 3.7 1.2 1 2.7 1.8 4.3 2.3 1.6.6 3.3.8 5.1.8 1.9 0 3.6-.3 5.2-.8 1.6-.6 3-1.3 4.2-2.3 1.2-1 2.2-2.2 2.9-3.7.7-1.4 1-3.1 1-4.9 0-1.8-.3-3.4-1-4.9-.7-1.4-1.6-2.7-2.9-3.7-1.2-1-2.6-1.8-4.2-2.3-1.6-.5-3.4-.8-5.2-.8zm86 30.2c0 .7.3 1.2.8 1.4.5.2 1.2.3 1.9.4v1.2h-18V671c.5 0 1.1-.1 1.8-.2s1-.5 1-1.1-.7-1.7-2.1-3.3c-1.4-1.6-3.3-3.5-5.5-5.9s-4.7-4.9-7.5-7.8c-2.8-2.9-5.5-5.9-8.3-9.2l-.2.2v25.5c0 .7.2 1.2.7 1.4s1.1.3 1.8.4v1.2h-16.6V671c.6-.1 1.2-.2 1.7-.4s.7-.6.7-1.4v-36.9c0-.7-.3-1.2-.8-1.4-.5-.2-1.1-.3-1.8-.4v-1.2h23.1v1.2c-.5.1-.9.2-1.4.4-.5.2-.7.6-.7 1.4 0 .1.5.8 1.6 2s2.4 2.7 4.1 4.5c1.7 1.8 3.6 3.8 5.6 6 2.1 2.2 4.1 4.4 6.2 6.6v-19.1c0-.7-.3-1.2-.8-1.4-.5-.2-1.2-.3-1.9-.4v-1.2h17.1v1.2c-.8.1-1.4.2-1.9.4s-.8.6-.8 1.4v37zm57.8-5.7c1.3 0 2.1-.8 2.5-2.4h1.2v12.7h-1c-.3-.9-.7-1.4-1-1.6-.4-.1-.9-.2-1.7-.2h-43.3V671c.7-.1 1.3-.2 1.9-.4.5-.2.8-.6.8-1.4v-36.9c0-.7-.3-1.2-.8-1.4-.6-.2-1.2-.3-1.9-.4v-1.2h44.1c.4 0 .8-.1 1.2-.4.4-.3.6-.8.6-1.7h1.2v13h-1.2c0-1-.2-1.6-.6-1.9-.4-.3-.8-.4-1.2-.4H977v7.9h18.3c.4 0 .8-.1 1.2-.4.4-.3.6-.9.6-1.8h1.2v12.6H997c0-.9-.2-1.5-.6-1.8-.4-.3-.8-.4-1.2-.4H977v9.6h27.6z" fill="#fff" stroke="#616675" stroke-linejoin="bevel" stroke-miterlimit="10" stroke-width="2"/><path d="m240.3 723.7-6.3-13.6c-.6-1.2-1-1.9-1.5-2.2s-1.1-.4-2-.4v-1.4h11.8v1.4c-1.4 0-2.1.3-2.1.9 0 .3.1.7.3 1.2l3.6 7.7 5.5-11.1h3l6.5 11.1 2.9-7c.2-.5.3-1 .3-1.2 0-1-.8-1.5-2.5-1.5v-1.4h8.3v1.4c-.8 0-1.4.2-2 .5-.6.4-1.2 1.4-2 3.3l-5.2 12.4h-3l-6.7-11.6-5.8 11.5h-3.1zm56.6 4.6v4.3c0 .8.1 1.3.2 1.6.1.2.5.5 1.1.6.6.2 1.5.2 2.8.3 1.7 0 2.9-.1 3.7-.4.8-.3 1.5-.8 2.1-1.5.6-.7 1.1-1.5 1.4-2.2h2.1l-.2 5.6h-23.6v-1.4h.5c1.3 0 2.1-.2 2.5-.5.4-.3.6-.9.6-1.6v-10.2c0-.8-.2-1.3-.6-1.6-.4-.3-1.2-.5-2.5-.5h-.5v-1.4h22l.4 4.5h-2.1c-.4-.8-.8-1.4-1.3-1.9s-.9-.8-1.4-.9c-.5-.1-1.3-.2-2.4-.2h-4.8v5.9h2.4c1.1 0 1.9-.1 2.3-.4s.6-.9.6-1.7h2.2v5.8h-2.2v-.2c0-.5-.2-.9-.5-1.3s-1.1-.6-2.4-.6l-2.4-.1zm35.3 15.2v-1.4c1.4 0 2.3-.1 2.7-.4s.7-.8.7-1.7v-10.2c0-.8-.2-1.4-.6-1.7-.4-.3-1.3-.4-2.7-.4v-1.4l3.1-.1c3.1-.1 5.6-.1 7.4-.1 3 0 5.4.1 7.2.4 1.9.2 3.6.7 5.3 1.5 1.7.8 2.9 1.8 3.8 3 .9 1.2 1.3 2.6 1.3 4.1 0 1.5-.5 2.9-1.4 4.1-.9 1.2-2.2 2.1-3.8 2.9s-3.3 1.1-5 1.3c-1.7.2-4.6.2-8.6.2l-9.4-.1zm10.2-15.9v11.9c0 .8.1 1.3.2 1.5.1.3.4.5.9.7.5.2 1.2.3 2.1.3 2.4 0 4.2-.6 5.4-1.7 1.2-1.2 1.8-2.9 1.8-5.2 0-1.9-.4-3.4-1.3-4.5s-2-1.9-3.4-2.3c-1.5-.5-3.4-.7-5.7-.7zm41 17.2v-1.4c1.4 0 2.3-.1 2.7-.4.4-.3.7-.8.7-1.7v-10.2c0-.8-.2-1.4-.6-1.7s-1.3-.4-2.7-.4v-1.4l3.1-.1c3.1-.1 5.6-.1 7.4-.1 3 0 5.4.1 7.2.4 1.9.2 3.6.7 5.3 1.5 1.7.8 2.9 1.8 3.8 3 .9 1.2 1.3 2.6 1.3 4.1 0 1.5-.5 2.9-1.4 4.1s-2.2 2.1-3.8 2.9c-1.6.7-3.3 1.1-5 1.3-1.7.2-4.6.2-8.6.2l-9.4-.1zm10.1-15.9v11.9c0 .8.1 1.3.2 1.5.1.3.4.5.9.7.5.2 1.2.3 2.1.3 2.4 0 4.2-.6 5.4-1.7 1.2-1.2 1.8-2.9 1.8-5.2 0-1.9-.4-3.4-1.3-4.5s-2-1.9-3.4-2.3c-1.5-.5-3.4-.7-5.7-.7zm40.8-3.4v-1.4H448v1.4h-.4c-1.3 0-2.1.2-2.5.5-.4.3-.6.9-.6 1.6v10.2c0 .8.2 1.3.6 1.6.4.3 1.2.5 2.5.5h.4v1.4h-13.7v-1.4c1.4 0 2.3-.1 2.7-.4.5-.3.7-.8.7-1.7v-10.2c0-.8-.2-1.4-.6-1.7-.5-.3-1.4-.4-2.8-.4zm41.1-3.9v7.9c0 1.3.3 2.1 1 2.5.7.4 1.6.5 2.7.5v1.4h-9.7v-1.4c.8 0 1.5-.1 2.2-.4.6-.3 1-.6 1.2-.9s.2-.9.2-1.7v-8.8c0-1.8-1.2-2.6-3.7-2.6v-1.4h8.7l14.1 10.6V721c0-1.9-1.2-2.8-3.6-2.8v-1.4h9.3v1.4c-.6 0-1.3.1-1.8.4-.6.2-.9.5-1.2.9s-.3.9-.3 1.6v13.2h-2.4l-16.7-12.7zm59.5-7.3v-1.4H547v1.4c-1 .1-1.6.3-1.9.6-.3.3-.4.8-.4 1.7v3.6h-1c-1.3 0-3.4.2-6.4.6-2.1.3-3.9.5-5.4.5-3.9 0-7.1-.9-9.5-2.6-2.4-1.8-3.6-3.8-3.6-6.1 0-2.5 1.3-4.6 3.8-6.4 2.6-1.8 5.7-2.7 9.5-2.7 3.1 0 5.8.7 8.1 2 .4-.6.7-1.2.7-1.8h2l.2 6H541c-1.3-2.9-3.9-4.4-7.6-4.4-2.3 0-4 .5-5.2 1.7-1.2 1.1-1.8 3-1.8 5.6 0 1.8.2 3.2.5 4.2s1 1.7 2 2.2c1 .5 2.3.8 3.9.8 1.4 0 2.6-.2 3.5-.6s1.4-1.2 1.4-2.4v-.6c.2-1.3-.8-1.8-2.8-1.9z" fill="#616675"/><path d="M646.2 416.2c.7-6.2 2.6-12.6 1.7-18.7-1.2-8.6-7.2-14.5-16.5-14.5-8.9 0-17.1-2-26.1-1.7-6.7.2-7.9-1.4-7.2-5.9.9-6 2.1-7.3 8.2-7.2 9.9.1 20.1-1.8 30.1-1.8 10.2 0 21.3-10.8 24.2-22.4 1.9-7.7 3.6-15.4 5.4-23.1.3-1.4.6-2.9 1.2-4.3 1.3-2.9 3.5-4.6 6.6-4.5 3.4.1 5.2 1.7 4.6 5.2-1.2 6.5-2.6 13-3.7 19.5-1 5.9-1.6 11.8-.7 17.5 1.1 6.9 5.7 10 12.1 11.1 9.9 1.8 20.3 2.4 30.7 2.7 7.1.2 7.2 1 5.6 8-1.2 5.3-5.3 5.1-8 5.1-8.4-.1-17.1 1.9-25.4 1.7-5.7-.2-11.1 1.7-16.4 4.4-6.4 3.3-9.2 9.3-11 14.9-2.8 8.7-4.6 17.5-6.7 26.2-.6 2.3-1 4.7-3.6 6.2-4.7 2.6-8.5 1.1-8-3.9.4-4.8 1.9-9.7 2.9-14.5z" fill="#fff" stroke="#616675" stroke-miterlimit="10" stroke-width="2"/><path d="M647.1 432.8c-.1 0-.5 0-.6-.2-.1-.2-.3-.7-.3-1.8.3-3.1 1-6.2 1.8-9.6.4-1.5.7-3 1-4.5v-.3c.2-1.8.5-3.6.8-5.5.8-4.5 1.5-9.2.9-13.9-1.4-10.5-8.9-17.1-19.5-17.1-3.9 0-7.7-.4-11.7-.8-4-.4-8.1-.9-12.3-.9H604c-2.2 0-2.9-.3-3.1-.4 0-.2-.1-.7.1-2.1.7-4.5.7-4.7 4.8-4.7h1.4c5 0 10.1-.5 15-.9 4.7-.4 9.6-.9 14.2-.9 11.4 0 23.8-11.3 27.1-24.7 1.3-5 2.4-10.1 3.5-15 .6-2.7 1.2-5.4 1.9-8.1l.2-.7c.3-1.1.5-2.2.9-3.1 1.1-2.4 2.6-2.8 3.7-2.8h.1c1.2 0 1.6.3 1.7.4 0 0 .2.4 0 1.3-.5 2.8-1.1 5.6-1.6 8.3-.7 3.7-1.5 7.5-2.1 11.2-.9 5.5-1.7 12-.7 18.4 1.2 7.5 6.1 12.1 14.5 13.6 11 1.9 22.4 2.5 31.1 2.8 2 .1 3 .2 3.5.3 0 1-.5 2.9-.7 4-.5 2.3-1.5 2.7-4.2 2.7H714c-4.1 0-8.2.4-12.1.9-4 .4-7.7.8-11.4.8h-2c-5.4 0-10.8 1.5-17.1 4.7-7.5 3.8-10.7 10.9-12.5 16.6-2.1 6.3-3.5 12.6-5 18.8-.6 2.6-1.2 5.1-1.8 7.6l-.1.4c-.5 2.1-.8 3.1-2.1 3.8-1.5 1.3-2.4 1.4-2.8 1.4z" fill="#616675"/><path d="M461.1 555.7c-1.5 1.8-4.3 1.6-5.7-.3-10.2-14.1-46.6-69.1-68.5-162.4-15.2-77.7 39.1-81.3 61.9-72.7 21.8 8.3 34.4 21.9 26.4 76.7-5 34.2-16.1 58.6-22.1 69.8-1.8 3.3-6.4 3.7-8.7.7-1.2-1.6-1.5-3.8-.5-5.6 10.9-20.5 42.8-130.8-4-128.8-54.6 11.2-16.4 115.6.9 145.5 16.5 28.4 31.5 47.4 36.7 53.8 1.1 1.4 1.1 3.3-.1 4.7l-16.3 18.6z" fill="#fff" stroke="#616675" stroke-miterlimit="10" stroke-width="2"/><path d="M458.4 553.9c-.1 0-.3 0-.5-.3-10.5-14.5-46.3-69-68-161.2-5.2-26.5-2.6-46.2 7.6-58.5 9.9-12 24.5-13.8 32.4-13.8 6.3 0 12.7 1.1 17.9 3.1 18.3 6.9 32.7 17.2 24.5 73.4-4.9 33.6-15.7 57.5-21.8 68.8-.4.7-1.1 1.2-2 1.2-.4 0-1.2-.1-1.8-.9-.5-.7-.6-1.6-.2-2.3 7.9-14.9 32.6-92.6 14.9-121.9-4.5-7.5-11.4-11.3-20.3-11.3h-1.3c-.2 0-.3 0-.5.1-12.1 2.5-20.8 9.4-25.8 20.5-16.6 37 12.7 108.8 24.7 129.4 16.4 28.3 31.3 47.3 36.9 54.2.2.2.2.6 0 .8l-16.3 18.6c-.1.1-.3.1-.4.1z" fill="#616675"/><path d="M421.2 514.1c-1.7-2.7-5.6-2.6-7.3 0-9.7 15.4-39.8 54.9-91.8 51-35.4-2.6-28.2-45.6-24.8-59.9.4-1.7-1.4-3-2.9-2.2L257 525.2c-.7.4-1.1 1.2-1 2 1.2 8.9 11.4 60.7 80.7 54.9 47.7-3 78.3-52.1 84.8-63.5.7-1.3.6-3.1-.3-4.5z" fill="#fff" stroke="#616675" stroke-miterlimit="10" stroke-width="2"/><path d="M326.1 579.6c-55.7 0-65.6-41.9-67.2-52.1l34.8-20.6c-6.5 29.8 1.1 44.4 4.7 49.4 5.2 7.1 13 11.1 23.3 11.9 2.4.2 4.9.3 7.3.3 48.9 0 77.3-36.8 87.3-52.7.3-.5.9-.6 1.1-.6s.8.1 1.2.6c.3.4.3 1 .1 1.4-5.6 9.8-35.8 59.1-82.3 62-3.5.3-7 .4-10.3.4z" fill="#616675"/><path d="M479.8 523c2.3 2.5 6.3 2.1 8.2-.8l60.9-94.9s15.2-22.8 22.8 4.7c7.6 27.5 0 82.9-32.2 127-25.6 31.3-45 23.8-39.1 17.3 5.9-6.5 16-13.7 29.3-18.8.1 0 .1-.1.2-.1 1.1-.7 12.8-8.7 21.7-30.7.4-1.1-.7-2.2-1.7-1.7l-40.2 18s-29.5 11.2-25.2 33.2c4.3 22.1 28.9 22.3 39.7 17.1 10.9-5.2 65.4-26.8 73-134.8C600.9 405.7 580 400 567 400s-25.2.2-41.5 31.5c-14 26.8-39.3 72.5-46.3 85.2-1.3 2.2-1 4.7.6 6.3z" fill="#fff" stroke="#616675" stroke-miterlimit="10" stroke-width="2"/><path d="M510.5 593.3c-5.9 0-20.1-1.7-23.1-17.4-3.7-19.3 23.1-29.8 23.3-29.9.1 0 .1 0 .2-.1l36.2-16.2c-7.9 17.4-17.3 24.2-18.7 25.2-12.2 4.6-23.2 11.7-30.3 19.5-1.8 2-2.3 4.4-1.4 6.6 1.2 2.7 4.3 4.2 8.5 4.2 15.5 0 31.9-18.5 36.5-24.2l.1-.1c24.4-33.4 43.3-91.1 32.7-129.6-2.9-10.5-7.4-15.8-13.5-15.8-7.7 0-14 9.1-14.7 10.2l-60.9 95c-.6.9-1.5 1-1.9 1-.4 0-1-.1-1.6-.7-.7-.7-.8-1.7-.3-2.6 7.3-13.2 32.4-58.5 46.4-85.3 15.7-29.9 26.4-29.9 38.9-29.9 7.6 0 13.5 2.3 17.8 6.9 7.9 8.5 11.1 24.8 9.4 48.4-3.1 43.6-14.1 77.9-32.9 102.1-14.9 19.2-30.4 26.4-37 29.5-.5.2-1 .5-1.4.7-3.3 1.6-7.8 2.5-12.3 2.5z" fill="#616675"/><path d="M597 504.5c-.5 3.5-2.6 15.4-11 31.9-.9 1.7.9 3.6 2.7 2.8 10.3-5 32.9-17 48.3-33.4 0 0 10.9 52.5 68.9 67.3 54.2 13.9 87.3-15.8 96.2-28.9.9-1.3.6-3.1-.6-4.2l-21.4-18c-1.5-1.3-3.8-.9-4.8.9-7.4 13.1-38.3 57.9-98.6 16.2-36.6-25.3-29.5-73.9-26-89.8.6-2.9-1.1-5.8-3.9-6.7-3.3-1-6.7 1-7.4 4.3-2.6 12.9-11.7 42.2-41.1 56.1-.8.2-1.3.8-1.3 1.5z" fill="#fff" stroke="#616675" stroke-miterlimit="10" stroke-width="2"/><path d="M733.4 573.7c-8.7 0-17.7-1.2-26.8-3.5-55.5-14.2-66.6-64.5-66.7-65-.2-1.1-1-2-2.1-2.3-.3-.1-.5-.1-.8-.1-.8 0-1.6.3-2.2 1-14 15-34.5 26.3-44.8 31.5 7.2-14.8 9.4-25.9 10-29.7 30.5-14.7 39.7-45.4 42.3-58 .3-1.3 1.4-2.2 2.7-2.2.3 0 .6 0 .8.1 1.4.4 2.2 1.8 1.9 3.2-3.3 15.1-11.1 66.3 27.3 92.9 17.2 11.9 33.6 17.9 48.8 17.9 31 0 48.2-24.5 54.1-35.1 0 0 0-.1.1-.1h.1l21.4 18c.1.1.1.1 0 .2-7.3 10.8-30.4 31.2-66.1 31.2z" fill="#616675"/><path d="M685.8 353.3c-2.1-2.6-1.7-6.5.9-8.6 9-7.5 31.9-22.1 68.7-17.5 55.1 7 46.6 55 29.5 75.3-13.4 15.8-39.7 29.5-61.6 37.1-1.1.4-2.3.1-3.1-.6l-21-18.6c-2.1-1.9-.9-5.3 1.9-5.5 17.8-1 60.5-6.8 69.2-37.5 11.1-39-27.6-39.4-45.4-36.6-12.2 1.9-24.3 9.3-30.7 13.7-2.6 1.9-6.3 1.3-8.4-1.2z" fill="#fff" stroke="#616675" stroke-miterlimit="10" stroke-width="2"/><path d="M722.3 436.7h-.1l-21-18.6s-.1-.1 0-.2c0-.1.1-.1.1-.1 18.5-1.1 62.7-7.1 71.9-39.6 3.5-12.4 2.6-22.2-2.8-29.4-7.5-10-21.8-12-32.4-12-5.6 0-10.5.6-13.5 1.1-12.9 2-25.5 9.8-31.9 14.2-.6.4-1.2.6-1.9.6-1 0-1.9-.4-2.5-1.2-1.1-1.4-.9-3.4.4-4.5 7.9-6.6 25.4-17.7 52.8-17.7 4.4 0 9 .3 13.6.9 19.4 2.5 32.4 10.6 37.4 23.5 6.1 15.7-.5 35.9-9.8 46.9-13.4 15.8-39.9 29-60.3 36.1z" fill="#616675"/><clipPath id="a"><use xlink:href="#a" overflow="visible"/></clipPath><g clip-path="url(#a)"><path d="M1088.4 1055.3c1.5 9 1.6 14.7 1.6 14.7s-12.3 1.6-12 9.8c0 0-2.5-3.6-3.5-7.7-.9-3.7 2.7-7.9 7.3-11.7 4-3.4 2.4-2.1 6.6-5.1zm-1.9-2.3s-15.2.4-22.6-10.7c0 0 4.7-1.8 15.4-1.3 0 0 .5 7.6 7.2 12z" fill="#fff7eb"/></g></g></switch></svg>