<?xml version="1.0" encoding="UTF-8"?><svg id="_圖層_1" xmlns="http://www.w3.org/2000/svg" viewBox="0 0 1080 210.07"><defs><style>.cls-1{fill:#616574;stroke:#616574;stroke-miterlimit:10;stroke-width:.5px;}</style></defs><path class="cls-1" d="m71.88,76.51c0,1.07,2.39,4.28,3.87,4.28h.08c6.75-.66,14.58-.91,19.43-.91-.08,2.14-.08,4.86-.33,7.82v.25c0,1.07.74,1.56,1.65,1.56.74,0,2.47-.66,2.47-1.98v-.08l-.17-7.58h16.64c-.08,1.65-.08,3.54-.25,5.44v.25c0,1.07.74,1.56,1.65,1.56.74,0,2.47-.66,2.47-1.98v-.08c0-1.56-.08-3.38-.17-5.19h22.07c1.4,0,1.81-.49,1.81-.99,0-1.15-4.36-5.6-7-6.51-.16-.08-.33-.08-.58-.08-.16,0-1.32,0-4.45,4.78-.25.41-.74.74-1.32.74h-10.54v-3.62c.08-2.31.41-2.8,1.65-3.38,1.07-.49,1.32-.99,1.32-1.48,0-1.73-6.26-2.39-6.59-2.39-.82,0-.82.16-.82.25s0,.25.08.41c.74,2.72.82,5.93.82,6.34,0,.58-.08,1.98-.08,3.87h-16.8c0-5.19.08-6.26,1.73-7,1.07-.49,1.4-1.07,1.4-1.48,0-.49-.33-.82-.49-.91-1.24-.66-5.02-1.4-6.09-1.48-.82,0-.82.16-.82.16,0,.08,0,.25.08.49.74,2.88.74,6.01.74,6.42v3.79c-5.52-.08-15.89-.41-23.47-1.32Z"/><path class="cls-1" d="m119.56,85.82c0,.17.33.41.91.82,1.89,1.32,4.78,4.04,5.76,5.68.74,1.24,1.56,1.81,2.39,1.81,1.24,0,2.22-1.32,2.22-2.8,0-3.79-6.09-5.76-10.54-5.76-.49,0-.74.08-.74.25Z"/><path class="cls-1" d="m143.11,120.82c-.17,0-.33.25-.66.99-3.54,8.07-4.45,11.45-7.08,11.45-.41,0-8.48-1.56-15.23-11.04,3.79-3.46,7.25-7.58,10.13-12.35.49-.91.91-.82,1.98-.99,1.89-.33,2.39-.99,2.39-1.65,0-1.32-6.09-4.04-6.18-4.04-.16,0-.16.16-.25.33-.49,1.07-.91,3.05-1.56,4.12-2.55,4.28-5.44,7.99-8.56,11.2-3.46-6.18-5.44-13.51-6.01-20.75h28.58c1.48,0,1.98-.41,1.98-.82,0-1.24-4.94-6.09-7.25-6.09-.74,0-1.15.16-3.87,4.28-.25.41-.91.74-1.48.74h-18.03c-.08-1.07-.08-2.14-.08-3.13q0-2.64,1.24-3.13c.82-.25,1.32-.74,1.32-1.15,0-1.81-7.08-2.31-7.25-2.31-.41,0-.49.08-.49.33,0,.08,0,.25.08.41.99,2.31,1.48,6.75,1.73,8.98h-18.12l-.41-.33c-1.98-1.23-6.75-3.05-7-3.13-.33-.08-.58-.08-.74-.08s-.25,0-.25.16c0,.08,0,.16.08.33.99,2.72,1.4,7.99,1.4,13.01,0,11.28-2.06,24.54-12.76,31.95-1.4.99-1.98,1.48-1.98,1.73,0,.08.08.08.16.08.41,0,1.65-.49,3.21-1.32,14.99-8.07,15.65-25.86,15.81-34.92,0-.41-.08-.99-.08-1.48,0-3.13.08-3.13,1.24-3.62.41-.16.66-.33.91-.49h18.69c1.15,8.24,3.38,16.14,7.08,22.98-10.29,9.31-22.56,13.67-32.86,14.91-.82.08-1.15.33-1.15.58s.49.49,1.32.49c.41,0,19.27-.33,34.67-12.76,7.99,12.02,19.02,15.23,22.07,15.23,2.31,0,3.54-1.07,3.54-2.47,0-.66-.25-1.32-.82-2.06-.08-.16-.16-.49-.16-1.07,0-2.72.99-9.31.99-11.94,0-.49,0-1.15-.25-1.15Z"/><path class="cls-1" d="m239.87,86.64c3.21-.58,3.95-.58,6.67-.58h6.75c.91,0,1.15-.41,1.15-.82,0-.99-2.88-3.79-3.95-3.79-.08,0-.25.08-.41.25-.66.49-1.65,1.56-1.98,2.06-.25.33-.58.58-.74.58h-.33c-2.55,0-5.68-.08-10.21-.91,0,.82,2.14,3.21,2.96,3.21h.08Z"/><path class="cls-1" d="m225.87,91.75c0-1.32-3.79-3.71-4.28-3.71-.33,0-1.89,1.65-2.39,2.31-.25.33-.58.58-.74.58h-.16c-2.55,0-7.99-.08-12.52-.91,0,.82,2.14,3.21,2.96,3.21h.08c1.32-.25,3.38-.58,9.22-.58h6.67c.91,0,1.15-.41,1.15-.91Z"/><path class="cls-1" d="m209.9,86.64c2.31-.41,4.12-.58,8.15-.58h6.67c.91,0,1.15-.41,1.15-.91,0-1.32-3.79-3.71-4.28-3.71-.33,0-1.89,1.65-2.39,2.31-.25.33-.58.58-.74.58h-.16c-2.55,0-6.92-.08-11.45-.91,0,.82,2.14,3.21,2.96,3.21h.08Z"/><path class="cls-1" d="m258.81,101.3c.41-.17,1.4-.49,1.4-1.15,0-1.32-4.04-2.88-4.69-2.88-.25,0-.41,0-.49.08-.33.08-.82.91-1.07,1.24-.17.25-.49.33-.82.33h-4.45l-.49-.17c-1.32-.49-3.54-1.4-4.04-1.48-.17-.08-.33-.08-.41-.08-.16,0-.25.08-.25.25,0,.08.08.16.08.33.49,1.98.49,4.04.49,4.78,0,1.48-.16,6.09-.33,8.15v.08c0,.82.66,1.15,1.4,1.15.99,0,2.06-.58,2.06-1.4,0-.41-.08-.91-.08-1.48h7.41v.82c0,.91.74,1.24,1.56,1.24.99,0,2.06-.58,2.06-1.48v-.08c-.16-1.65-.41-4.53-.41-6.09,0-1.65.08-1.65,1.07-2.14Zm-11.69,5.93v-4.53c.08-1.32.08-1.15.99-1.65l.33-.17h5.44c.49,0,.66.41.66.41.08.99.08,3.46.08,5.93h-7.49Z"/><path class="cls-1" d="m256.34,92.73c.99,0,1.24-.41,1.24-.82,0-1.65-4.61-4.04-4.69-4.04-.49,0-1.07.41-2.55,2.47-.25.33-.58.58-.74.58h-1.65c-2.55,0-6.59-.08-11.12-.91,0,.82,2.14,3.21,2.96,3.21h.08c.49-.08,2.88-.49,7.82-.49h8.65Z"/><path class="cls-1" d="m198.29,89.03c3.21,0,5.85-4.69,6.59-9.72h25.03v.99c0,3.54-.33,8.73-.49,12.35v.16c0,1.4.82,1.98,1.73,1.98,1.24,0,2.55-.99,2.55-2.31,0-2.64-.25-6.18-.25-10.54v-2.64h24.38c.33,0,.49.16.49.49s-.25,1.89-3.05,6.59c-.16.33-.33.58-.33.66s.08.08.08.08c.08,0,.33-.08.66-.25,3.05-1.32,6.18-4.2,9.47-4.61,1.98-.25,2.64-.82,2.64-1.48,0-1.89-5.02-5.27-6.09-5.27-.58,0-2.06,1.07-2.06,1.07-.33.33-.99.66-1.4.66h-24.71v-.16c.16-2.47.16-2.72,1.65-3.29.49-.17,1.07-.58,1.07-1.07,0-.16-.08-.33-.33-.49h20.51c1.32,0,1.65-.41,1.65-.91,0-1.89-4.53-5.02-6.34-5.68-.08,0-.25-.08-.41-.08-1.4,0-3.79,3.46-4.2,4.04-.25.41-.82.66-1.32.66h-11.2c-4.61,0-19.02-.25-27.34-1.23,0,1.07,2.06,4.12,3.54,4.12h.08c5.68-.58,13.42-.82,18.86-.91.08,1.15.16,3.29.16,5.02h-24.95c0-2.55-.49-5.02-.82-5.02-.17,0-.33.16-.41.58-.91,4.61-1.98,6.92-6.51,11.04-.99.91-1.4,1.89-1.4,2.72,0,1.4,1.07,2.47,2.47,2.47Z"/><path class="cls-1" d="m239.3,101.3c.41-.17,1.4-.49,1.4-1.15,0-1.32-4.04-2.88-4.69-2.88-.25,0-.41,0-.49.08-.33.08-.74.91-.99,1.24-.16.25-.58.33-.91.33h-4.28c-.08-.08-3.71-1.56-4.36-1.65-.17-.08-.33-.08-.41-.08-.16,0-.25.08-.25.25,0,.08.08.16.08.33.33,1.32.41,2.64.41,4.78,0,1.48-.08,5.93-.25,7.99v.17c0,.74.66,1.07,1.4,1.07.91,0,1.89-.49,1.89-1.32v-1.4h7.25v1.48c0,.82.66,1.15,1.4,1.15,1.32,0,2.14-.99,2.14-1.56v-.08c-.17-1.65-.41-4.94-.41-6.59s.08-1.65,1.07-2.14Zm-11.53,5.93c0-.82-.08-1.65-.08-2.47,0-3.13.17-3.13,1.15-3.71l.33-.17h5.19c.49,0,.66.41.66.41.08.91.08,3.46.08,5.93h-7.33Z"/><path class="cls-1" d="m260.63,128.48c-.66,0-3.29,2.31-4.45,3.95-.25.41-.91.74-1.48.74h-17.87c.08,0,.25-.17.33-.25,1.4-1.15,4.61-4.61,7.25-8.24l.08.08c1.73,1.32,4.12,3.38,5.93,6.18.74,1.15,1.48,1.56,2.22,1.56.99,0,1.73-.99,1.73-2.14,0-2.72-3.46-4.61-9.72-6.01l1.65-2.55c.41-.66.58-.74,1.32-.82,1.15-.08,1.73-.49,1.73-.99,0-.41-.25-.99-3.38-2.55h14.25c1.32,0,1.81-.58,1.81-1.07,0-1.32-5.6-4.94-7.25-4.94-.66,0-2.96,2.31-4.04,3.46-.33.33-.82.66-1.4.66h-23.63c-4.61,0-15.81-.16-24.05-1.24v.08c0,1.07,2.14,3.95,3.62,3.95h.08c3.46-.33,7.08-.58,10.46-.74-.16.91-.25,1.81-.66,2.64-2.72,5.93-4.78,9.22-7.91,12.52-4.36-.16-8.56-.41-11.69-.82v.08c0,1.07,2.39,3.95,3.95,3.95h.08c7.49-.74,20.67-.91,25.28-.91h41.51c1.4,0,1.81-.49,1.81-.99,0-1.81-6.75-5.6-7.58-5.6Zm-30.8,4.69h-4.45c-2.88,0-9.8-.08-16.8-.33,2.14-1.81,4.86-4.36,7.16-7.33,1.24,1.07,3.54,2.72,5.02,5.11.58.99,1.32,1.4,1.98,1.4.91,0,1.73-.99,1.73-2.06,0-2.47-4.69-4.86-8.24-5.02.82-1.07,1.48-2.22,2.14-3.29.33-.49.41-.74,1.48-.74,1.24-.08,1.81-.49,1.81-1.07,0-.91-2.06-1.73-3.38-2.31,2.72-.08,5.19-.08,7.08-.08h4.28c.25,1.98.25,5.19.25,6.92,0,6.59,0,7.25-.08,8.81Zm6.75,0h-3.29c0-1.65-.08-3.38-.08-4.94q0-9.06,2.39-9.8c.49-.16.91-.49.91-.91v-.08h7.41c-1.73,6.84-5.52,13.18-7,15.15-.25.25-.33.41-.33.49v.08Z"/><path class="cls-1" d="m220.27,101.3c.41-.17,1.32-.49,1.32-1.15,0-1.4-4.45-2.88-4.53-2.88-.25,0-.41,0-.49.08-.33.08-.82.91-1.07,1.24-.16.25-.49.33-.82.33h-4.53l-.49-.17c-1.32-.58-3.54-1.4-4.04-1.48-.16-.08-.33-.08-.41-.08-.16,0-.25.08-.25.25,0,.08.08.16.08.33.49,1.98.49,4.04.49,4.78,0,1.48-.17,6.75-.33,8.81v.08c0,.82.66,1.15,1.4,1.15.99,0,2.14-.58,2.14-1.4,0-.58-.08-1.32-.08-2.14h7.49c0,.49-.08.99-.08,1.4v.08c0,.82.66,1.15,1.32,1.15s1.98-.33,1.98-1.56v-.08c-.16-1.48-.25-4.36-.25-6.09q0-2.06,1.15-2.64Zm-11.69,5.93c0-1.73,0-3.46.08-4.53.08-1.32.08-1.15.99-1.65l.33-.17h5.44c.49,0,.66.41.66.41.08.91.08,3.46.08,5.93h-7.58Z"/><path class="cls-1" d="m350.63,120.65c-.25,0-.49.08-.58.25-2.39,6.51-8.89,6.92-16.72,6.92-2.14,0-3.79-.16-5.76-.33-.33-.16-.82-.49-.82-.91,0-.08.08-.16.17-.33,4.53-7.17,13.34-13.92,18.86-22.15,3.29-4.86,4.78-9.8,4.78-14.25,0-8.24-5.35-14.49-14-14.49-12.11,0-16.72,14.33-16.72,14.33,0,.66.58,1.24,1.24,1.24.41,0,.82-.25,1.07-.74,3.05-5.44,7.49-9.39,13.01-9.39,6.59,0,8.56,4.2,8.56,9.06,0,15.4-20.18,36.81-27.26,40.85-.25.16-.41.33-.41.49,0,.82,1.73,1.81,2.39,1.81,3.95-.33,8.89-.41,13.67-.41,8.56,0,16.47.33,16.47.33.49-.17.66-.66.74-.82.33-2.39,1.4-4.53,2.55-10.71v-.08c0-.41-.66-.66-1.24-.66Z"/><path class="cls-1" d="m380.44,93.72c-1.32,0-2.72.08-3.95.33h-.41c-.41,0-.91-.08-.91-.66,0-.08,0-.25.08-.41.66-1.89,1.15-4.69,1.89-7,.25-.82.82-1.07,1.56-1.24,4.61-.82,9.88-1.56,14.66-2.39,1.81-.33,4.36-4.78,4.36-6.09,0-.49-.25-.66-.66-.66-.25,0-.58.08-.91.25-.49.25-16.96,3.71-20.09,3.71h-.33c-1.15,0-.91.99-.99,1.32-.66,4.04-2.72,12.85-4.78,17.71-.25.58-.91,1.32-.91,1.81,0,.41,1.07.58,1.56.58,1.48,0,1.24-.82,2.47-1.07.99-.17,1.98-.49,2.64-.58,1.23-.16,2.39-.16,3.46-.16,9.06,0,14.58,4.53,14.58,13.09-.08,15.98-16.8,22.65-24.62,24.54-.82.25-1.24.74-1.24,1.32,0,.66.58,1.32,1.56,1.32,3.05,0,30.8-8.24,30.8-28.25,0-9.88-7.41-17.46-19.85-17.46Z"/><path class="cls-1" d="m440.07,98.75c-.25,0-.33-.16-.33-.25,0-.16.16-.25.25-.33,5.44-4.12,7.99-9.31,7.99-13.67,0-5.85-4.86-9.06-9.96-9.06-8.56,0-16.31,9.31-16.31,11.61,0,.66.49,1.07.99,1.07.58,0,1.32-.41,1.81-1.24,1.07-1.56,5.85-7.16,11.36-7.16,3.05,0,5.76,1.98,5.76,6.83,0,9.14-10.13,12.35-11.12,12.68-1.89.58-2.31,3.13-2.31,3.87,0,.82.33,1.15.74,1.15s.91-.25,1.32-.58c.74-.66,2.8-1.32,4.28-1.32,6.34,0,10.05,5.76,10.05,13.42,0,11.69-8.98,19.11-16.06,19.11-4.78,0-5.35-3.79-8.56-4.45h-.33c-2.64,0-3.29,1.98-3.29,3.13,0,.49.08,4.45,8.98,4.45,11.69,0,25.86-10.54,25.86-24.79,0-11.69-9.06-14.33-11.12-14.49Z"/><path class="cls-1" d="m484.86,75.44c-10.95,0-16.8,9.47-16.8,17.21,0,10.79,7.25,16.14,13.92,16.14,6.01,0,10.46-4.78,10.46-6.42,0-.82-.58-1.4-1.24-1.4-.25,0-.49.16-.74.41-2.31,2.64-4.86,3.95-7.33,3.95-5.68,0-8.89-6.34-8.89-13.09,0-9.39,4.69-14.74,10.38-14.74,8.65,0,10.71,11.78,10.71,18.12,0,18.78-10.87,35.91-24.79,40.6-.58.25-.82.82-.82,1.48,0,.58.33,1.24.99,1.24,1.32,0,30.88-11.28,30.88-43.4v-1.4h.08c-.25-7.41-4.86-18.69-16.8-18.69Z"/><path class="cls-1" d="m572.73,115.22c2.72-7.25,3.95-15.15,5.11-22.4.41-2.31,1.4-1.81,2.14-2.39.58-.41,2.06-.99,2.06-1.98,0-1.65-5.35-4.53-6.18-4.53-.33,0-.49.08-1.81,1.65-.41.49-.82.91-1.15.91h-6.18l1.73-11.12c.49-3.05.33-3.38,2.55-4.36,1.24-.58,1.73-1.24,1.73-1.81,0-1.48-5.02-2.88-8.32-2.88-.16,0-.25.08-.25.25s.08.41.08.82c.08.66.08,1.4.08,2.22,0,2.72-.25,6.18-.49,8.81-.25,2.55-.58,5.27-.99,8.15-3.54,0-8.32-.25-12.11-.82,0,.82,2.22,3.95,3.13,3.95h.08c2.8-.49,5.85-.82,8.48-.91-1.65,9.88-4.04,20.75-6.67,28-.17.41-.25.82-.25,1.15,0,.99.74,1.48,1.65,1.48,1.4,0,3.13-.99,3.54-2.55l.66-2.64c2.31.49,4.53,1.4,6.51,2.47-3.21,7.99-8.07,14.74-15.89,19.27-1.57.91-2.31,1.48-2.31,1.81,0,.08.16.17.33.17.33,0,14-3.62,21.25-19.11,2.14,1.56,3.95,3.38,5.19,5.11s2.39,2.39,3.29,2.39c1.24,0,2.06-1.15,2.06-2.64,0-4.69-8.48-8.23-9.06-8.48Zm-3.79-1.24c-2.14-.49-4.45-.82-6.59-.82h-.74c1.56-6.67,3.29-16.06,4.69-24.46h6.83c.49,0,.66.33.66.66,0,1.48-1.98,16.31-4.86,24.62Z"/><path class="cls-1" d="m623.79,102.04c0-2.22.99-6.09.99-7.08,0,0,0-.16-.08-.16s-.16.08-.33.41c-1.56,2.55-2.88,7.33-4.61,7.33-.33,0-9.96-2.96-13.67-15.24h16.22c1.24,0,1.56-.33,1.56-.82,0-1.48-4.45-5.76-6.34-5.76-.82,0-2.88,3.46-3.13,3.87-.25.41-.74.66-.99.66h-7.82c-.16-.66-.82-3.54-.82-7.82,0-.74.08-.82.74-1.15.41-.25.82-.66.82-1.07,0-.49-.08-.58-2.14-.99,2.72-.66,5.43-1.4,8.15-2.14.41-.17.91-.25,1.4-.25.33,0,.74.08,1.15.16.33.08.58.08.82.08.91,0,1.4-.49,1.4-.99,0-1.4-4.2-4.78-4.28-4.78-.16,0-.16.33-.41.58-2.96,2.96-16.72,7.41-20.01,8.32-1.15-1.15-6.67-3.21-6.83-3.21q-.08,0-.08.16c0,.08,0,.25.08.49.91,3.87.91,11.04.91,20.09v7.74l-1.07.17c-1.15.25-3.62.66-5.93.66h-.99c-.08,0-.25.08-.25.33v.08c.49.91,4.04,4.61,5.02,4.61.49,0,.82-.66,1.65-.99,6.34-2.55,20.18-8.65,20.18-9.31,0-.08-.08-.17-.33-.17-.33,0-.91.08-1.65.33-5.35,1.65-9.72,2.72-13.01,3.46v-12.35h12.68c4.61,16.88,18.12,20.83,20.18,20.83,1.48,0,2.63-.74,2.63-1.89,0-.74-.49-1.73-1.48-2.72-.25-.25-.33-.82-.33-1.48Zm-33.68-16.8v-4.45c0-2.64.16-2.47,1.07-2.96.91-.49,1.48-.99,1.73-1.4,2.31-.41,4.94-.91,7.66-1.48.49,1.56.74,3.95.82,4.78.16,1.81.41,3.62.82,5.52h-12.11Z"/><path class="cls-1" d="m611.93,106.73c-.25,0-.41.08-.58.16-.49.25-1.32,1.48-1.73,2.14-.33.49-.74.49-1.07.49h-14.74l-.33-.25c-1.98-1.32-5.93-2.88-6.42-2.88-.08,0-.16.08-.16.25,0,.08,0,.33.08.58.49,2.55.91,8.15.91,15.48,0,3.46-.08,7.74-.49,14.08v.25c0,1.4.82,1.98,1.73,1.98,1.24,0,2.63-.99,2.63-2.47l-.08-3.21h18.69v3.29c0,1.48.82,2.14,1.81,2.14,1.23,0,2.63-1.07,2.63-2.8v-.16c-.33-5.76-.49-11.94-.49-16.39q0-5.35,1.73-6.51c.49-.33,1.73-.82,1.73-1.81,0-1.48-4.2-4.36-5.85-4.36Zm-1.57,24.46h-18.69v-9.47h18.86c0,2.8-.17,6.01-.17,9.47Zm-18.69-11.61c0-1.07.08-2.22.08-3.54.08-2.47-.16-2.96,1.48-4.12l.25-.16h16.39c.41,0,.41,1.07.41,1.07.17,1.65.25,3.87.25,6.75h-18.86Z"/><path class="cls-1" d="m709.6,83.76c0,3.62-.25,7.33-.66,12.6v.25c0,1.24.66,1.73,1.4,1.73.99,0,2.06-.82,2.06-2.14v-.58h25.94v.41c0,1.32.74,1.89,1.48,1.89.66,0,2.06-.66,2.06-2.39v-.16c-.16-3.29-.49-7.91-.49-11.53v-.99c0-2.31.08-2.96,1.4-3.29.74-.17,2.06-.82,2.06-1.89,0-1.23-3.79-4.04-5.19-4.04-.33,0-.58.08-.82.25-.41.25-.74.91-1.24,1.48-.33.33-.58.49-.99.49h-5.27c0-4.36.41-4.78,1.4-5.19,1.07-.41,1.65-.99,1.65-1.56,0-1.73-6.18-2.22-6.34-2.22-.41,0-.49,0-.49.17,0,.08,0,.25.08.49.66,2.55.74,5.93.74,8.32h-6.42c0-4.2,0-4.69,1.32-5.19,1.07-.41,1.65-.99,1.65-1.56,0-1.73-6.18-2.22-6.34-2.22-.41,0-.49,0-.49.17,0,.08,0,.25.08.49.66,2.55.74,5.93.74,8.32h-4.37l-.33-.25c-2.39-1.81-4.94-3.05-5.52-3.05,0,0-.08.08-.08.25,0,.08,0,.25.08.58.66,3.21.91,9.39.91,10.38Zm21.74-5.68h6.26c.74,0,.74.82.74.82.17,1.89.17,3.62.17,5.44h-7.25c0-2.14.08-4.28.08-6.26Zm-.08,8.48h7.25c0,2.06,0,4.28-.08,6.84h-7.16v-6.84Zm-9.39-8.48h6.51v6.26h-6.59c0-2.14.08-4.28.08-6.26Zm-.08,8.48h6.59c0,2.31,0,4.53-.08,6.84h-6.51v-6.84Zm-8.89-4.2c.16-3.29-.25-3.05.91-3.87.17-.16.33-.33.49-.41h4.61v6.26h-6.18c0-.74.17-1.4.17-1.98Zm-.25,4.2h6.26c0,2.31,0,4.53-.08,6.84h-6.42c0-2.47.16-4.78.25-6.84Z"/><path class="cls-1" d="m739.33,100.97c-.25.41-.82.66-.99.66h-15.15c-4.37,0-11.53-.25-19.27-1.15,0,.91,1.89,3.95,3.21,3.95h.08c6.75-.66,11.53-.74,15.73-.74h24.21c1.24,0,1.56-.41,1.56-.91,0-2.39-5.35-5.44-5.93-5.44-.91,0-2.96,2.64-3.46,3.62Z"/><path class="cls-1" d="m740.48,112.99c.41-.25,1.56-.66,1.56-1.48,0-1.65-4.94-4.2-5.44-4.2-.33,0-1.56.66-2.14,1.65-.25.41-.74.74-1.15.74h-16.55c-1.98-1.15-5.35-2.39-5.76-2.39-.08,0-.17,0-.17.16,0,.08,0,.25.08.49.41,1.89.58,4.78.58,8.07,0,1.56-.17,3.13-.49,6.18v.49c0,1.24.66,1.81,1.48,1.81,1.15,0,2.55-1.07,2.55-2.64v-.82h20.18c0,.25-.08.58-.08.91v.08c0,1.4.91,2.06,1.81,2.06,1.15,0,2.47-.82,2.47-2.72v-.16c-.16-1.48-.33-4.94-.33-5.93s.17-1.56,1.4-2.31Zm-5.19,6.01h-20.26v-3.95c.17-1.98.17-2.14,2.14-3.13h16.96c.74,0,.99.66.99.82.17,2.22.25,3.62.25,4.69,0,.58-.08,1.07-.08,1.56Z"/><path class="cls-1" d="m682.51,75.36h.08c7.49-.74,3.54-.74,8.15-.74h11.53c1.32,0,1.65-.41,1.65-.91,0-1.15-2.72-3.95-5.85-5.19-.17,0-.33-.08-.49-.08-.58,0-2.31,1.89-3.29,3.54-.25.41-.82.66-1.07.66h-2.22c-4.78,0-3.38-.25-11.86-1.15,0,.82,2.06,3.87,3.38,3.87Z"/><path class="cls-1" d="m744.19,128.81c-.25-.16-.41-.25-.58-.25-.25,0-.41.08-.66.33-.82.82-2.22,2.22-3.13,3.54-.25.41-.82.82-1.32.82h-9.47c1.4-.99,3.46-2.64,4.28-3.29.74-.58,1.15-.99,1.89-.99h.16c.41.08.74.08.99.08.99,0,1.48-.25,1.48-.74,0-1.65-6.75-4.61-7-4.61-.16,0-.08.25-.16.82-.49,2.64-.74,3.95-3.46,8.65v.08h-5.44c.82-.41,1.4-1.4,1.4-2.64,0-5.02-7.82-6.18-8.4-6.18-.08,0-.16,0-.16.08s.08.25.41.58c1.24,1.48,3.05,3.87,3.54,5.85.33,1.24.82,1.98,1.4,2.31h-.25c-4.36,0-11.94-.33-19.85-1.4,0,1.07,2.55,4.36,3.95,4.36h.08c6.83-.74,11.12-.91,15.32-.91h29.48c1.32,0,1.81-.49,1.81-1.07,0-.99-5.27-5.02-6.34-5.44Z"/><path class="cls-1" d="m694.53,87.3c-.08-.08-.25-.08-.41-.16h10.46c1.4,0,1.81-.49,1.81-1.07,0-1.56-3.62-4.04-5.44-4.78-.17,0-.41-.08-.58-.08-1.32,0-3.13,2.64-3.46,3.21-.25.41-.82.66-1.07.66h-3.87c-4.28,0-8.4-.25-16.14-1.15,0,.91,1.81,3.95,3.29,3.95h.08c5.44-.58,7.49-.74,10.29-.74.17,1.07.17,1.89.17,7.25,0,4.53-.33,30.96-.41,42.49,0,1.4.91,1.98,1.81,1.98,1.15,0,2.39-.82,2.39-2.14v-.08c-.16-5.35-.25-13.59-.25-21.82,0-9.8.08-19.52.08-24.05,0-2.06.16-1.98,1.15-2.47.33-.16.41-.33.41-.49,0-.25-.17-.41-.33-.49Z"/><path class="cls-1" d="m680.61,93.06c-.74,0-.74.08-.74.08v.25c.58,2.55.58,8.65.58,10.87,0,12.93-1.15,21.08-6.09,27.42-.33.41-.58.82-.58,1.07,0,.08.08.08.16.08.17,0,.49-.16,1.15-.66,9.14-7.16,9.14-19.11,9.14-33.02,0-1.32.17-1.73,1.07-2.31.91-.58,1.24-1.07,1.24-1.48,0-1.4-5.02-2.22-5.93-2.31Z"/><path class="cls-1" d="m702.35,126.58v-.08c-.17-2.96-.41-14.16-.41-21.16,0-6.09.17-7.41,1.15-8.15,1.15-.91,1.56-1.48,1.56-1.89,0-1.24-5.19-2.06-6.26-2.06-.25,0-.41,0-.41.33,0,.08.08.25.08.41.49,2.8.49,6.75.49,7.74,0,2.31-.08,19.85-.41,25.28v.16c0,1.07.66,1.48,1.56,1.48,1.32,0,2.64-.99,2.64-2.06Z"/><path class="cls-1" d="m875.04,107.31c-13.34-.33-33.02-13.67-38.54-21.16h.91c1.81,0,2.39-.58,2.39-1.24,0-.16-.08-.41-.17-.58-.82-1.48-5.6-4.36-5.76-4.53-.08-.16-.17-.25-.25-.25-.17,0-.25.33-.33.66-.41,1.15-1.24,3.21-2.31,4.69-10.46,14.82-23.06,24.38-32.86,29.15-.74.33-1.07.66-1.07.74,0,.17.16.17.41.17,2.64,0,19.93-5.52,37.55-27.34l.33-.41c12.52,15.73,30.39,25.78,33.19,25.78.16,0,.33-.08.49-.33.99-1.56,6.92-4.12,6.92-5.02,0-.16-.25-.33-.91-.33Z"/><path class="cls-1" d="m800.02,74.45c0,1.07,2.31,4.2,3.79,4.2h.08c5.27-.58,13.59-.74,19.52-.82,0,2.64-.08,5.35-.17,6.67v.16c0,.99.74,1.4,1.56,1.4,1.07,0,2.39-.74,2.39-1.89,0-.91-.08-3.71-.17-6.42h17.05v6.09c0,1.32.82,1.89,1.73,1.89,1.07,0,2.22-.74,2.22-2.06v-.16c-.08-1.15-.25-3.46-.33-5.76h21.25c1.32,0,1.73-.41,1.73-.91,0-1.15-3.95-5.19-6.67-6.18-.17-.08-.33-.08-.49-.08-1.32,0-3.87,3.79-4.28,4.45-.25.41-.82.74-1.32.74h-10.21c-.08-1.48-.08-2.8-.08-3.54,0-2.14.41-2.55,1.65-3.05.99-.41,1.24-.82,1.24-1.24,0-1.89-6.18-2.8-6.83-2.8-.17,0-.25.08-.25.25,0,.08.08.25.08.41.49,2.72.58,5.76.58,6.18v3.79h-17.13v-3.54c.17-2.14.49-2.55,1.73-3.05.99-.41,1.24-.82,1.24-1.24,0-1.89-6.18-2.8-6.83-2.8-.17,0-.25.08-.25.25,0,.08.08.25.08.41.41,2.22.58,5.52.58,5.93,0,.49-.08,2.06-.08,3.95-6.83-.17-17.21-.49-23.39-1.24Z"/><path class="cls-1" d="m843.01,117.44c-.17,0-.25.08-.25.17s0,.16.17.25c5.43,3.87,12.11,8.98,14.25,13.26.74,1.48,1.65,2.14,2.55,2.14,1.32,0,2.47-1.48,2.47-3.21,0-.82-.25-1.73-.82-2.55-4.36-6.09-18.36-10.05-18.36-10.05Z"/><path class="cls-1" d="m852.73,111.35c1.4,0,1.81-.41,1.81-.91,0-.74-2.55-3.87-6.18-5.19-.16,0-.33-.08-.58-.08-.99,0-3.21,2.64-3.95,3.54-.33.41-.58.66-1.15.66h-5.44c0-1.07.08-2.22.08-3.29,0-3.79.08-3.05,1.65-4.04.25-.17.91-.66.91-1.15,0-.99-4.94-1.73-6.26-1.89h-.17c-.25,0-.49.17-.49.49v.08c.66,2.72.66,4.61.66,7.16v2.64c-4.37,0-14.17-.33-19.44-1.07v.08c0,1.07,2.22,3.79,3.54,3.79h.08c2.8-.33,11.69-.82,15.81-.82-.08,8.73-.33,20.75-.41,25.45,0,1.56.82,2.22,1.81,2.22,1.15,0,2.47-.99,2.47-2.55v-.08c-.17-7.91-.25-16.47-.25-25.03h15.48Z"/><path class="cls-1" d="m821.27,116.21c-.33,0-.33.33-.41.74-1.24,5.02-13.59,14.58-20.67,17.79-.91.41-1.24.74-1.24.99,0,.08.17.16.41.16,2.47,0,15.73-6.01,23.47-13.26.74-.74.99-.99,1.48-.99.17,0,.33.08.58.08.49.08.99.16,1.32.16.66,0,.99-.25.99-.58,0-1.24-5.93-5.11-5.93-5.11Z"/><path class="cls-1" d="m974.85,112.66c-.49,0-.91.41-2.14,1.89-.33.33-.58.49-1.07.49h-24.79l-.41-.33c-.99-.58-4.78-2.31-6.09-2.31-.17,0-.17.08-.17.25s0,.33.08.66c.66,3.13.82,5.93.82,6.83,0,3.46-.17,12.85-.66,17.95v.33c0,1.24.82,1.81,1.81,1.81,1.65,0,2.47-1.15,2.47-2.31v-2.47h28.82c0,.82-.08,1.65-.08,2.47,0,1.32.91,1.89,1.81,1.89,1.15,0,2.39-.82,2.39-2.22v-.16c-.16-3.21-.58-10.46-.58-14.33v-.91c0-2.14.41-2.72,1.48-3.21.74-.41,2.06-.82,2.06-1.81,0-1.98-5.52-4.53-5.76-4.53Zm-1.32,20.59h-28.91c0-2.55-.08-5.11-.08-7.33h29.15c0,2.39-.08,4.78-.16,7.33Zm-28.99-9.55c0-.91.08-1.73.08-2.31.16-3.29.33-3.05,1.56-3.87.17-.16.33-.25.49-.33h26.02c.74,0,.74.66.74.74.17,1.73.25,3.71.25,5.76h-29.15Z"/><path class="cls-1" d="m947.43,103.03c.58,1.4,1.48,1.98,2.22,1.98,1.15,0,2.22-1.15,2.22-2.64,0-2.72-3.29-4.86-8.4-5.02h-.74c0,.08.17.25.49.58,1.32,1.24,3.38,3.21,4.2,5.11Z"/><path class="cls-1" d="m997.5,88.12c-14-1.32-30.3-10.38-36.73-18.45l.25-.08c1.98-.33,2.63-.91,2.63-1.4,0-1.32-7.91-4.94-7.91-4.94-.25,0-.17.33-.25.66-.33,1.24-.99,3.46-2.06,5.02-10.05,14.08-21.82,22.23-31.54,26.76-.82.41-1.24.66-1.24.82,0,.08.17.16.49.16,2.55,0,10.38-3.71,13.92-5.76.58,3.29.74,9.39.74,10.21,0,3.46-.17,4.86-.66,9.96v.25c0,1.07.74,1.56,1.56,1.56,1.15,0,2.47-.82,2.47-2.06,0-.66-.08-1.24-.08-1.81h39.78v1.98c0,1.32.74,1.81,1.56,1.81,1.07,0,2.31-.82,2.31-2.31v-.16c-.17-3.21-.58-6.09-.58-9.22v-.74c0-1.73,0-2.64,1.48-3.38.91-.41,2.39-.91,2.39-1.89,0-1.73-4.69-4.28-5.6-4.28-.82,0-1.98.99-2.39,1.48-.33.33-.58.49-1.07.49h-35.66l-.33-.25c-1.4-.91-3.62-1.81-4.86-2.31,2.63-1.65,5.35-3.62,8.15-5.76.74,1.32,2.39,3.21,3.46,3.21h.17c4.45-.58,8.32-.91,11.04-.91h10.87c1.24,0,1.56-.49,1.56-1.07,0-1.81-5.27-5.11-6.01-5.11-.33,0-.74.33-3.38,3.38-.33.33-.66.74-1.24.74h-1.48c-3.71,0-7.25-.16-13.92-1.07,6.92-5.52,13.5-12.6,13.92-13.26,9.31,13.42,28.99,22.4,30.47,22.4.17,0,.41,0,.66-.16,2.72-1.89,8.24-3.38,8.24-4.12,0-.16-.33-.33-1.15-.41Zm-37.3,9.96c0-1.48.08-1.56,1.15-2.06.41-.17.74-.49.74-.82,0-.08,0-.16-.08-.25h16.06c.74,0,.74.74.74.82.16,2.31.25,4.12.25,6.01,0,1.56-.08,3.13-.08,5.11h-12.93c1.56-1.4,3.79-4.04,4.36-4.53.66-.58,1.15-.91,1.73-.91h.25c.41.08.74.08.99.08,1.07,0,1.48-.33,1.48-.74,0-1.89-6.75-4.86-6.75-4.86-.16,0-.16.25-.25.91-.74,4.36-1.98,6.92-3.62,10.05h-4.04q-.08-1.4-.08-2.64c0-.99,0-2.64.08-6.18Zm-21.08.91c.16-3.29.25-2.8,1.48-3.62l.58-.41h15.24c.16,1.48.16,8.65.16,9.64v2.31h-17.46c0-1.65-.08-3.05-.08-4.36,0-1.24.08-2.47.08-3.54Z"/></svg>