<?xml version="1.0" encoding="UTF-8"?><svg id="_圖層_1" xmlns="http://www.w3.org/2000/svg" viewBox="0 0 1080 210.07"><defs><style>.cls-1{stroke-width:.5px;}.cls-1,.cls-2{stroke:#c5a76c;stroke-miterlimit:10;}.cls-1,.cls-2,.cls-3{fill:#c5ac74;}.cls-4{fill:#f9f6ec;}.cls-4,.cls-5,.cls-3,.cls-6{stroke-width:0px;}.cls-5{fill:#616574;}.cls-6{fill:#e3ce90;}</style></defs><path class="cls-3" d="m590.68,158.22v-1.66c3.67,0,6.93-.49,9.69-1.45,2.75-.96,5.11-2.37,6.99-4.19,1.88-1.81,3.35-4.03,4.36-6.61.74-1.89,1.27-4,1.57-6.25.06-.46-.14-.91-.51-1.18-.21-.15-.47-.23-.72-.23-.19,0-.38.04-.56.13-.68.34-1.38.64-2.09.89-1.44.5-2.97.76-4.53.76-4.32,0-7.77-1.26-10.27-3.74-2.5-2.48-3.77-5.92-3.77-10.24,0-1.98.36-3.81,1.07-5.47.71-1.65,1.71-3.08,2.98-4.25,1.26-1.17,2.76-2.09,4.46-2.73,1.7-.64,3.56-.97,5.54-.97,2.75,0,5.09.54,6.95,1.59,1.86,1.06,3.38,2.48,4.53,4.22,1.15,1.75,1.97,3.76,2.46,5.98.48,2.23.73,4.57.73,6.95,0,4.31-.51,8.27-1.52,11.76-1.01,3.49-2.67,6.5-4.95,8.96-2.27,2.46-5.28,4.38-8.93,5.71-3.65,1.33-8.18,2.01-13.46,2.01h0Zm13.56-45.11c-1.42,0-2.62.34-3.56,1-.95.67-1.69,1.5-2.25,2.53-.55,1.01-.95,2.15-1.18,3.39-.23,1.24-.35,2.45-.35,3.6,0,1.24.19,2.63.55,4.12.37,1.49.94,2.89,1.7,4.15.76,1.26,1.7,2.33,2.8,3.18,1.12.86,2.41,1.28,3.94,1.28,1.38,0,2.56-.23,3.53-.69.98-.46,1.75-1.1,2.35-1.94.6-.83,1.03-1.8,1.28-2.91.25-1.1.38-2.32.38-3.6,0-1.37-.16-2.9-.48-4.53-.32-1.63-.85-3.17-1.56-4.57-.71-1.4-1.67-2.6-2.84-3.56-1.19-.98-2.6-1.45-4.32-1.45Z"/><path class="cls-3" d="m469.53,157.39c-1.76-.09-3.53-.16-5.26-.21-1.74-.05-3.51-.07-5.26-.07-2.35,0-4.7.02-6.99.07-2.28.05-4.64.11-6.99.21l-.42-1.11,10.45-10.72c1.43-1.53,2.85-3.13,4.22-4.77,1.37-1.65,2.61-3.43,3.67-5.29,1.05-1.86,1.92-3.81,2.56-5.81.64-2,.97-4.13.97-6.33,0-1.1-.14-2.28-.42-3.49-.28-1.22-.73-2.33-1.35-3.32-.62-.99-1.41-1.81-2.35-2.46-.96-.65-2.08-.97-3.42-.97-.96,0-1.92.11-2.84.31-.92.21-1.74.54-2.46,1-.72.47-1.29,1.08-1.73,1.87-.44.78-.66,1.76-.66,2.91,0,.55.13,1.05.38,1.49.25.43.54.86.86,1.28.32.41.61.88.86,1.38.25.51.38,1.14.38,1.87,0,.96-.33,1.71-.97,2.21-.64.51-1.43.76-2.35.76-.74,0-1.38-.17-1.9-.52-.53-.35-.96-.79-1.28-1.31-.32-.53-.57-1.12-.73-1.76-.16-.64-.24-1.29-.24-1.94,0-1.7.33-3.27.97-4.67.64-1.4,1.53-2.63,2.63-3.67,1.1-1.03,2.4-1.85,3.87-2.42,1.47-.57,3.05-.87,4.71-.87,4.45,0,7.96,1.2,10.41,3.56,2.46,2.37,3.7,5.82,3.7,10.27,0,2.62-.8,5.22-2.39,7.75-1.58,2.52-3.53,4.99-5.78,7.33-2.25,2.35-4.62,4.59-7.02,6.68-1.46,1.26-2.8,2.49-3.99,3.64-.37.35-.48.89-.29,1.36s.65.78,1.15.78h9.46c1.38,0,2.52-.06,3.39-.17.87-.11,1.65-.37,2.32-.76.66-.39,1.3-.94,1.9-1.63.6-.7,1.32-1.63,2.14-2.77l.83.69-4.77,9.62Z"/><path class="cls-3" d="m554.57,158.22c-1.38,0-2.82-.17-4.29-.52-1.47-.34-2.83-.89-4.05-1.63-1.22-.73-2.23-1.69-3.01-2.84-.78-1.15-1.18-2.54-1.18-4.15,0-1.1.27-2.07.8-2.87.53-.8,1.4-1.21,2.59-1.21,1.33,0,2.23.43,2.66,1.28.44.85.66,1.86.66,3.01,0,.41-.06.83-.17,1.25-.11.41-.17.83-.17,1.25,0,.78.24,1.46.73,2.01.49.56,1.08,1,1.8,1.35.71.35,1.47.6,2.25.76.78.16,1.5.24,2.14.24,1.84,0,3.37-.4,4.57-1.18,1.21-.79,2.14-1.79,2.84-3.04.69-1.24,1.18-2.66,1.45-4.22.28-1.56.42-3.14.42-4.7,0-1.06-.15-2.18-.45-3.36-.3-1.17-.77-2.26-1.38-3.22-.62-.96-1.4-1.78-2.32-2.42-.93-.65-2-.97-3.25-.97-1.47,0-2.64.26-3.49.76-.85.51-1.82,1.3-2.87,2.35l-1.31-1.04,13.56-16.08c.31-.37.38-.89.18-1.33-.2-.44-.64-.72-1.13-.72h-9.84c-.87,0-1.61.2-2.18.59-.57.39-1.07.89-1.49,1.49-.42.6-.79,1.26-1.11,1.97-.31.69-.64,1.38-.97,2.04l-.97-.14,2.42-11.07c1.94.09,3.85.16,5.67.21,1.82.05,3.72.07,5.67.07h2.87c1.16,0,2.34-.01,3.49-.03,1.2-.02,2.38-.06,3.49-.1,1.13-.05,2.09-.09,2.87-.14l.35.97-14.5,15.64c-.34.37-.43.91-.22,1.37.2.44.65.72,1.13.72.02,0,.04,0,.05,0,.29-.01.58-.02.87-.02,1.42,0,2.82.27,4.15.8,1.33.53,2.51,1.35,3.49,2.46.99,1.1,1.79,2.49,2.39,4.12.6,1.63.9,3.58.9,5.78,0,1.93-.36,3.79-1.07,5.54-.71,1.74-1.76,3.3-3.11,4.64-1.35,1.33-3.05,2.4-5.05,3.18-2,.78-4.31,1.18-6.88,1.18Z"/><path class="cls-3" d="m506.2,158.22c-1.24,0-2.58-.2-3.98-.59-1.4-.39-2.72-.97-3.91-1.73-1.19-.76-2.21-1.7-3.01-2.8-.8-1.1-1.21-2.38-1.21-3.81,0-1.29.24-2.33.73-3.11.48-.78,1.33-1.18,2.53-1.18.98,0,1.79.33,2.49,1,.7.67,1.04,1.59,1.04,2.8,0,.93-.09,1.59-.28,2.01-.18.41-.28.95-.28,1.59,0,.61.25,1.13.76,1.59.5.46,1.13.86,1.87,1.18.73.32,1.51.57,2.32.73.8.16,1.51.24,2.11.24,1.1,0,2.21-.24,3.29-.73,1.08-.48,2.08-1.23,2.98-2.21.89-.99,1.63-2.23,2.18-3.7.55-1.47.83-3.24.83-5.26,0-1.56-.19-3.06-.55-4.46-.37-1.4-.96-2.64-1.76-3.7-.8-1.06-1.82-1.91-3.01-2.53-1.19-.62-2.64-.93-4.29-.93-2.37,0-4.24.63-5.71,1.94-1.45,1.29-2.55,2.99-3.29,5.05l-1.52-.42,7.06-27.05h5.05c.28.28.66.52,1.14.73.48.21,1.01.38,1.56.52.55.14,1.11.24,1.66.31.55.07,1.04.1,1.45.1,1.24,0,2.47-.2,3.67-.59,1.19-.39,2.33-.94,3.39-1.63l.97,1.11c-2.2,1.51-4.37,2.81-6.43,3.84-2.07,1.03-4.51,1.56-7.26,1.56-.6,0-1.22-.06-1.83-.17-.24-.04-.48-.09-.72-.14-.08-.02-.17-.02-.25-.02-.54,0-1.03.35-1.19.89l-3.27,10.89c-.14.45,0,.94.34,1.27.23.22.54.34.85.34.15,0,.3-.03.44-.08.37-.14.75-.27,1.14-.41,1.29-.44,2.73-.66,4.29-.66,1.97,0,3.85.27,5.57.8,1.72.53,3.25,1.34,4.53,2.42,1.28,1.08,2.3,2.48,3.01,4.15.71,1.68,1.07,3.71,1.07,6.05s-.44,4.53-1.31,6.36c-.87,1.84-2.07,3.4-3.56,4.64-1.49,1.24-3.26,2.19-5.26,2.84-2,.64-4.15.97-6.4.97Z"/><path class="cls-3" d="m161.48,163.43c-.13,0-.13-.04-.13-.06,0-.26.88-.88,1.52-1.33,6.62-4.58,9.84-12.64,9.84-24.63,0-4.43-.39-8.07-1.06-9.97-.01-.03-.02-.06-.04-.1-.04-.1-.05-.15-.05-.22,0-.09,0-.13.19-.13.13,0,.32,0,.57.06.27.09,3.9,1.48,5.4,2.41.22.16.48.25.75.25h12.13c.36,0,.7-.15.93-.42.24-.27.35-.62.3-.98-.32-2.62-.7-4.41-1.16-5.49,0-.01-.01-.03-.02-.04-.06-.12-.06-.25-.06-.3,0-.14,0-.25.38-.25.74.01,3.03.18,4.51.82.16.07.33.1.49.1.27,0,.53-.09.75-.25.36-.27.54-.71.48-1.15,0-.07-.01-.14-.01-.21v-.19c.08-.94.11-1.88.14-2.78v-.13c.01-.34-.11-.66-.35-.9-.23-.24-.56-.38-.89-.38h-10.26c-.33,0-.66.14-.89.37-.23.24-.36.56-.35.9l.1,4.57v.07c0,1-1.33,1.52-1.9,1.52-.79,0-1.27-.45-1.27-1.21v-.19c.14-1.63.17-3.16.21-4.5v-.24c.02-.34-.11-.67-.35-.91-.23-.24-.55-.37-.89-.37h-.01c-1.73.02-7.83.12-13.68.69h-.06c-1.1,0-2.98-2.43-2.98-3.3,4.1.49,10.38.86,16.82.99,0,0,.02,0,.03,0,.33,0,.64-.13.87-.36.24-.23.37-.55.37-.89v-1.65c0-.63-.04-2.86-.56-4.91,0-.02-.01-.04-.02-.07-.05-.15-.05-.27-.05-.35.03-.04.21-.13.63-.13.72.06,3.69.61,4.7,1.14.1.05.38.28.38.7,0,.15-.08.68-1.08,1.14-1.22.55-1.3,1.49-1.33,4.14,0,.33.13.65.36.89.23.24.55.37.89.37h10.47c.68,0,1.23-.54,1.24-1.22,0-.39.02-.74.03-1.03v-.08c.01-.29.02-.51.02-.66,0-.65-.11-2.91-.61-4.8-.01-.05-.03-.09-.04-.13-.04-.11-.04-.22-.04-.27,0-.04,0-.07.01-.08.03-.02.21-.11.62-.11,3.08.12,5.08,1.17,5.08,1.84,0,.2,0,.67-1.02,1.14-1.2.56-1.22,1.32-1.27,2.58,0,.02,0,1.57,0,1.57,0,.69.56,1.24,1.24,1.24h6.85c.39,0,.76-.18,1-.5.02-.03.05-.07.07-.1,2.22-3.39,3.17-3.66,3.41-3.66.19,0,.31,0,.42.05.02,0,.04.02.07.03,1.93.71,5.3,4.02,5.35,5-.01.49-.51.76-1.4.76h-15.71c-.34,0-.66.14-.9.38-.23.24-.36.57-.35.91.03.64.05,1.27.06,1.87.01.66.54,1.19,1.19,1.22,3.16.13,7.61,1.58,7.64,4.41,0,.52.34.99.83,1.16.13.05.27.07.41.07.37,0,.73-.16.97-.46.71-.87.96-.87,1.28-.87.78,0,2.07.74,3.46,1.99,1.68,1.51,2.13,2.43,2.13,2.71,0,.59-1.17.63-1.52.63h-20.65c-.35,0-.69.15-.93.41s-.35.62-.31.97c.52,4.68,1.79,9.19,3.67,13.03.18.37.54.63.95.68.06,0,.11.01.17.01.35,0,.69-.15.93-.41,2-2.22,3.81-4.69,5.39-7.33.3-.49.53-1.21.75-1.91.15-.48.3-.93.45-1.27,0,0,.03-.06.04-.09.04-.11.08-.15.11-.16.32.09,1.25.51,2.44,1.17,1.95,1.07,2.36,1.64,2.36,1.94,0,.23,0,.95-1.84,1.27-.1.02-.2.03-.29.04-.13.02-.23.03-.31.04-.37.06-.69.28-.87.6,0,0-.03.04-.03.05-1.96,3.24-4.31,6.2-7.02,8.8-.46.44-.51,1.16-.12,1.66,4.86,6.25,10.28,7.45,10.88,7.57.08.02.16.02.24.02.04,0,.07,0,.11,0,1.58-.14,2.31-1.85,4.07-5.99.36-.84.76-1.79,1.22-2.83.21-.48.37-.76.51-.76.02,0,.04,0,.05,0,.04.07.14.31.14.89,0,1.01-.18,2.72-.38,4.53-.19,1.78-.39,3.62-.39,4.68,0,.19.01.32.02.4.02.21.1.41.22.58.35.5.52.95.52,1.43,0,.92-.72,1.9-2.73,1.9-.09,0-9.01-.63-16.27-10.68-.2-.27-.49-.45-.82-.5-.06,0-.12-.01-.19-.01-.27,0-.53.09-.75.25-11.76,8.88-25.56,9.04-25.7,9.04-.69,0-1.01-.23-1.01-.38,0-.33.68-.42.89-.44,5.24-.63,15.37-2.87,24.58-10.83.43-.38.56-1,.29-1.51-2.29-4.48-3.92-9.8-4.85-15.8-.09-.61-.62-1.05-1.23-1.05h-12.97c-.22,0-.44.06-.63.17-.14.08-.28.15-.43.21l-.17.07c-.41.18-.69.56-.74,1-.05.4-.05,1.07-.05,1.72,0,.18.01.38.03.58v.05c.02.19.03.37.03.52-.11,6.13-.37,20.55-12.19,26.91-1.88.99-2.42,1.02-2.48,1.02Zm36.34-40.76c-.29,0-.58.1-.8.29-.3.25-.46.63-.44,1.02v.03c0,.33-.4.69-.98.88-.03,0-.06.02-.09.03l-.11.05c-.44.18-.74.6-.77,1.07-.02.31-.02.78-.02,1.27,0,.39,0,.79,0,1.19.01.68.57,1.22,1.24,1.22h9.58c.51,0,.96-.31,1.15-.78.19-.47.08-1.01-.29-1.36-.23-.22-.45-.5-.65-.84-.76-1.27-2.97-3.36-4.44-4.38-.23-.17-.52-.26-.81-.26-.24,0-.48.07-.68.2-.44.3-.95.44-1.24.44-.14,0-.27-.01-.38-.04-.09-.02-.19-.03-.28-.03Z"/><path class="cls-3" d="m243.1,160.39c-1.25,0-3.05-2.27-3.05-3.05v-.06c2.01.26,4.77.47,8.44.61.02,0,.03,0,.05,0,.35,0,.68-.15.92-.41,2.15-2.36,3.7-4.86,5.7-9.22.03-.06.07-.15.11-.25.15-.39.1-.84-.15-1.18-.23-.32-.61-.51-1.01-.51-.02,0-.05,0-.07,0-2.21.13-4.43.29-6.43.48h-.06c-1.11,0-2.79-2.16-2.79-3.05v-.06c.55.07,1.12.14,1.7.2.04,0,.09,0,.13,0,.43,0,.84-.23,1.07-.6.25-.41.24-.93-.03-1.34-.09-.13-.13-.3-.13-.49v-.06c.13-1.58.25-5.66.25-6.79,0-.59,0-2.16-.38-3.68-.01-.07-.03-.14-.05-.21,0-.02,0-.03,0-.05,0-.13.06-.19.19-.19.05,0,.15,0,.26.04.04.02.09.03.13.04.57.14,2.1.72,2.98,1.1.03.01.07.03.1.04l.14.05c.13.04.26.06.39.06h3.1c.41,0,.79-.2,1.02-.54.14-.21.39-.56.58-.65.03-.01.05-.03.08-.04.05-.03.15-.04.25-.04.84.18,3.17,1.08,3.55,2.03.02.05.05.1.07.15-.02.05-.03.11-.05.16-.09.4-.74.66-.95.74-.03.01-.07.03-.1.05l-.16.08c-.39.2-.65.6-.67,1.04-.01.22-.01.55-.01.88,0,1.45.07,3.58.19,4.7v.06c0,.99-1.1,1.21-1.52,1.21-.47,0-.99-.22-1.01-.84-.03-.67-.58-1.19-1.24-1.19h-3.17c-.34,0-.67.14-.9.39-.23.25-.36.58-.34.92,0,.12,0,.24,0,.35,0,.26-.14.5-.42.7-.43.31-.61.85-.47,1.35s.59.86,1.11.9c5.65.38,11.26.41,12.85.41h18.22c.1,0,.2-.01.29-.03.33-.08.59-.28.76-.44.02-.02.03-.03.05-.05.97-1.04,1.76-1.8,2.36-2.25.43-.32.6-.88.43-1.39-.17-.51-.64-.85-1.18-.85h-3.12c-.66,0-1.21.52-1.24,1.18-.03.61-.86,1.04-1.59,1.04-.25,0-1.08-.06-1.08-.89v-.06c.13-1.57.25-5.17.25-6.28,0-.59,0-2.16-.38-3.68-.01-.07-.03-.14-.05-.21,0-.02,0-.03,0-.05,0-.13.06-.19.19-.19.05,0,.15,0,.26.04.04.02.08.03.13.04.33.08,1.06.36,2.05.75.35.13.68.26.96.37.01,0,.21.07.21.07.13.04.26.06.39.06h3.03c.41,0,.79-.2,1.02-.54.14-.21.39-.56.58-.65.03-.01.05-.03.08-.04.07-.04.22-.04.35-.04.79.06,3.62,1.22,3.62,2.22,0,.32-.31.59-1,.86,0,0-.04.02-.05.02-.03.01-.05.02-.08.04l-.07.03c-.41.2-.68.61-.7,1.07,0,.19,0,.42,0,.52,0,1.12.16,3.16.32,4.7v.06c0,.23-.08.43-.24.61-.25.28-.36.65-.31,1.02.06.37.27.69.6.88,2.05,1.21,2.92,2.35,2.93,2.69,0,.41-.43.82-1.4.82h-7.28c-.42,0-.81.21-1.04.56-.23.35-.27.79-.1,1.18.03.07.04.14.04.23,0,.61-1.01.74-1.31.76-.02,0-.1.01-.1.01-.37.05-.7.26-.9.58l-.35.55c-.21.33-.26.75-.12,1.12s.45.65.83.76c3.79,1.03,5.75,2.42,5.82,4.11.02.5.35.94.82,1.12.14.05.28.07.42.07.34,0,.68-.14.92-.41,1.37-1.5,2.34-2.07,2.64-2.13,1.25.25,5.86,2.97,5.86,4.31-.01.49-.51.76-1.4.76h-31.99c-3.46,0-13.69.13-19.48.7h-.06Zm34.81-8.16s-.09,0-.13,0c-.34.04-.64.21-.85.48-.9,1.16-1.93,2.38-2.89,3.43-.34.36-.42.89-.23,1.34.2.45.65.75,1.14.75h6.2c.46,0,.88-.25,1.1-.66.22-.41.19-.9-.07-1.28-.9-1.33-2.03-2.56-3.46-3.77-.23-.19-.51-.29-.8-.29Zm-5.52-6.12c-.36,0-.7.15-.94.42-.12.14-.32.26-.55.34-.56.17-.86.27-1.11.47-.09.07-.17.16-.24.25-.45.64-.49,1.7-.49,6.83,0,.59.02,1.2.03,1.83l.02.76c.01.68.57,1.22,1.24,1.22h.61c.33,0,.65-.13.88-.36.04-.04.09-.1.13-.15,1.21-1.65,3.52-5.67,4.88-9.99.12-.38.05-.79-.18-1.11-.23-.32-.61-.51-1-.51h-3.27Zm-9.36,0c-.53,0-1.1,0-1.72,0-.4,0-.78.2-1.01.53-.23.33-.29.75-.16,1.13.02.06.03.11.03.18,0,.47-.51.77-1.4.83h-.13c-.42.02-.81.24-1.03.6,0,0-.47.78-.58.95-.21.34-.24.75-.1,1.11.15.37.46.64.84.74,2.21.58,4.55,2.04,4.55,3.58,0,.25-.05.49-.15.72-.17.39-.14.83.09,1.19.23.36.62.57,1.05.57h1.95c.68,0,1.23-.54,1.24-1.22.02-.89.02-2.26.02-5.57,0-1.03,0-2.74-.09-4.16-.04-.66-.58-1.17-1.24-1.17h-2.16Zm-7.25,6.74c-.35,0-.7.15-.95.44-.74.88-1.58,1.77-2.49,2.65-.36.35-.47.88-.29,1.35.18.47.63.78,1.13.79,1.86.05,3.66.09,5.24.11,0,0,.01,0,.02,0,.44,0,.86-.24,1.08-.62.23-.39.22-.87-.01-1.26,0-.01-.03-.06-.04-.07-.79-1.26-1.9-2.28-2.88-3.1-.23-.19-.52-.29-.8-.29Zm25.32-19.49c-.2,0-.41.05-.59.15,0,0-.06.03-.06.03-.38.2-.62.58-.65,1.01v.17s-.01.05-.01.08v2.21c0,.69.56,1.24,1.24,1.24h3.29c.33,0,.65-.13.88-.37.23-.23.36-.55.36-.88,0-.92,0-1.78-.02-2.43-.02-.68-.57-1.21-1.24-1.21h-3.2Zm-29.64,0c-.2,0-.41.05-.59.15l-.06.03c-.37.2-.62.58-.65,1.01v.18c-.05.5-.07,1.2-.07,2.26,0,.33.13.65.36.88.23.23.55.37.88.37h3.35c.33,0,.65-.13.88-.37.23-.23.36-.55.36-.88,0-.91,0-1.78-.02-2.43-.02-.68-.57-1.21-1.24-1.21h-3.2Zm12.02,8.38c-.5,0-1.08-.22-1.08-.82v-.13c.13-1.57.19-5.03.19-6.16,0-.6,0-1.09-.03-1.51,0-.2-.07-.39-.16-.56.07-.18.09-.38.06-.59-.05-.36-.11-.7-.2-1.03-.01-.07-.03-.14-.05-.21,0-.02,0-.03,0-.05,0-.13.06-.19.19-.19.06,0,.17,0,.29.05.04.02.09.03.14.05.67.2,2.17.73,2.98,1.11.17.08.35.12.53.12h2.9c.43,0,.82-.22,1.05-.58.12-.2.33-.52.5-.61.03-.01.05-.03.08-.04.07-.04.22-.04.35-.04.79.06,3.62,1.22,3.62,2.22,0,.32-.31.59-1,.86,0,0-.05.02-.06.02-.03.01-.16.08-.16.08-.4.2-.67.61-.68,1.06,0,.19,0,.42,0,.52,0,1.23.19,3.78.32,5.08v.06c0,.41-.58,1.21-1.65,1.21-.24,0-1.05-.06-1.08-.84-.03-.67-.58-1.19-1.24-1.19h-3.1c-.65,0-1.19.5-1.24,1.15-.05.58-.79.95-1.46.95Zm2.78-8.38c-.22,0-.44.06-.63.17l-.16.09c-.3.19-.51.49-.58.84-.06.33-.09.89-.09,1.88,0,.24,0,.48.02.72.03.66.58,1.19,1.24,1.19h3.2c.33,0,.65-.13.88-.37.23-.23.36-.55.36-.88,0-.91,0-1.78-.02-2.43-.02-.68-.57-1.21-1.24-1.21h-3Z"/><path class="cls-3" d="m267.47,128.65c-.22,0-1.33-.07-1.33-1.52v-.15c.03-.69.07-1.48.12-2.3-.36-1.96-.36-5.41-.36-7.13h-5.17c-3.44,1.72,6.89,1.72,1.48,4.38-.55,0-1.03.36-1.19.88-.16.52.04,1.09.5,1.4,1.23.83,1.89,1.7,1.89,2.1,0,.46-.3.7-.89.7h-5.14c-4.74,0-6.28.29-7.11.44h-.06c-.64-.03-2.24-1.77-2.28-2.48,3.09.57,6.81.69,9.39.7h0c.39,0,.75-.18.99-.49.15-.19.53-.68.98-1.11.37-.35.48-.89.29-1.36-.19-.47-.65-.78-1.16-.78h-1.04c-3.23,0-4.6.14-6.28.44h-.06c-.5-.02-1.98-1.39-2.26-2.38,0-.03-.02-.06-.03-.09,0,0,0,0,0,0,2.52.46,5.4.69,8.56.7h0c.39,0,.76-.18.99-.49.71-.83.71-2.55.25-3.38h-10.29c-.59,0-1.09.41-1.22.98-.06.28-.13.56-.2.84-.07.26-.05.52.03.76-.21.14-.38.34-.47.59-.49,1.3-1.89,4.32-4.26,4.32-1.09,0-1.9-.82-1.9-1.9,0-.71.38-1.46,1.08-2.09,3.48-3.17,4.31-4.9,5.01-8.5.62.67.62-1.05.62-1.05,0,1.72,0,5.17,1.72,5.17,5.17,0,13.77,1.72,15.5-1.72,6.89-10.33-10.33,3.44-15.5-5.17,13.77,3.44,27.55-6.89,39.6,1.72-6.89,0-12.05,0-18.94,1.72,6.89,10.33,20.66-5.17,24.11,5.17,1.72,1.72-6.89,1.72-6.89,6.89,0,0,1.72,1.72,1.28,2,0,.52-.52.63-.95.63h-6.66c-2.42,0-4.56.13-6.01.38h-.08c-.51-.02-2.02-1.43-2.27-2.41,0-.02,0-.04-.02-.05,0,0,0,0,0,0,3.44.63,6.54.7,8.57.7.98.49,4.42-1.24,2.7-2.96-3.44-1.72-8.61,1.72-12.05-3.44,3.44,0,8.61,5.17,8.61,0,0-6.89-6.89,0-10.33-1.72,0,1.72,0,5.17.02,6.27l.03.92c0,.11.02.22.05.32-.02.1-.04.21-.03.32.02.53.03,1.03.03,1.5,0,1.05-1.04,1.78-1.97,1.78Zm16.75-11.89c.62,19.72,2.34,19.72,2.6,0h-2.6Z"/><path class="cls-3" d="m731.92,162.61c-.52,0-1.4-.32-1.4-1.52.03-4.22.1-10.92.17-17.39v-.57c.07-5.55.12-10.79.14-13.46,0-.19-.04-.37-.12-.54.08-.16.12-.35.12-.54v-.26c0-2.41,0-3.62-.02-4.37-.02-.67-.57-1.2-1.24-1.2-.01,0-.02,0-.03,0-1.73.05-3.48.21-6.76.56h-.06c-1.15,0-2.53-2.32-2.54-3.05,6.35.74,9.37.89,12.44.89h2.8c.44,0,.84-.23,1.06-.6.72-1.18,1.85-2.38,2.61-2.38.06,0,.14.02.22.03h.07c.05.02.1.03.16.03,1.15.47,3.95,2.24,4.18,3.55,0,.05.02.1.04.15-.02.05-.03.1-.04.15-.04.16-.15.66-1.37.66h-6.43c-.46,0-.88.25-1.1.66-.05.1-.18.18-.28.23l-.17.08c-.4.19-.67.59-.7,1.03-.01.15-.02.39-.02.79,0,1.41-.01,3.48-.02,5.94v.15c-.02,3.57-.04,8.01-.04,12.44,0,6.76.07,12.89.19,16.82v.07c0,1.12-1.1,1.64-1.84,1.64Zm9.84-2.03c-1.07,0-3.05-2.55-3.05-3.36,4.16.56,8.98.95,13.23,1.05.01,0,.02,0,.03,0,.39,0,.75-.18.99-.49.24-.32.32-.73.2-1.11-.01-.05-.03-.1-.04-.15-.28-1.13-1.22-2.68-2.69-4.46-.02-.03-.05-.05-.07-.08-.04-.04-.08-.08-.11-.12-.24-.28-.59-.43-.94-.43-.13,0-.26.02-.38.06-.17.05-.34.08-.5.08-.27,0-1.14-.1-1.14-1.4v-.38c.26-2.44.38-3.57.38-4.76,0-2.69-.15-4.82-.43-6.16,0-.03-.02-.07-.03-.1-.04-.15-.05-.25-.05-.34,0-.1.04-.11.07-.12,0,0,.02,0,.03,0,0,0,0,0,0,0,.58.07,2.8.94,4.2,1.69.18.1.39.15.59.15h12.27c.43,0,.84-.23,1.06-.6.4-.66,1.26-1.19,1.6-1.24.33.08,1.42.53,2.51,1.28,1.27.88,1.73,1.6,1.73,1.95,0,.43-.4.73-.99,1.03-.1.05-.15.08-.2.11-.76.45-1.09.82-1.09,1.78,0,.71.12,3.39.25,4.57v.13c0,1.27-.78,1.89-1.51,2.05-.47.1-.84.47-.94.93-.11.47.06.95.43,1.25.81.65.81.98.81,1.09,0,.47-.62.57-1.14.57-.17,0-.39,0-.67-.05-.07-.01-.14-.02-.21-.02-.09,0-.19,0-.28.03-.35.08-.61.27-.99.57l-.61.48c-.41.33-.57.88-.4,1.38.17.5.65.83,1.17.83h3.53c.25,0,.49-.07.7-.21.09-.06.22-.17.34-.31.03-.04.06-.08.08-.12.69-1.01,1.76-2.08,2.4-2.72.19-.19.32-.25.51-.25.1,0,.22.04.39.16.04.03.08.05.12.08,1.94,1.13,4.68,3.4,4.82,4.18,0,.71-.98.79-1.4.79h-22.72c-3.22,0-6.46.12-11.8.7h-.06Zm9.82-11.68c-.6,0-1.11.42-1.22,1.01-.01.06-.03.13-.05.19-.1.33-.05.69.12.99.18.3.47.51.81.58,1.28.28,5.44,1.43,5.44,4.6,0,.19-.02.37-.05.55-.07.36.03.74.26,1.03.24.29.59.45.96.45h1.18c.45,0,.86-.24,1.08-.63,1.72-3.03,1.96-4.05,2.33-6.07,0-.02,0-.04.01-.07.02-.13.02-.25.03-.33,0-.19.05-.25.05-.25.11-.13.18-.27.23-.42.1.33.35.61.68.76.25.11.5.23.74.35.17.09.36.13.55.13.28,0,.56-.1.79-.28.38-.31.54-.81.42-1.28-.02-.07-.03-.15-.04-.23-.08-.62-.61-1.08-1.23-1.08h-.71c-.55,0-1.03.36-1.19.87-.02-.05-.04-.1-.06-.16-.2-.44-.64-.72-1.13-.72h-10Zm.76-7.05c-.2,0-.39.05-.57.14-.61.31-.81.46-.96.63-.12.13-.21.28-.26.44-.07.2-.09.39-.15,1.15,0,.03,0,.07,0,.1v1.75c0,.69.56,1.24,1.24,1.24h13.19c.33,0,.65-.13.88-.37.23-.23.36-.55.36-.88,0-.69-.05-1.57-.15-3.05-.05-.65-.59-1.16-1.24-1.16h-12.34Zm-33.62,16.12c-.13,0-.13-.04-.13-.06,0-.08.04-.32.44-.82,3.93-5.04,4.7-11.57,4.7-21.14,0-2.75-.05-6.61-.44-8.38v-.18c.08-.03.25-.07.57-.07,2.33.21,4.32.93,4.55,1.64.02.05.04.1.06.15-.03.06-.05.11-.07.18-.14.45-.73.82-.92.95-.23.15-.38.27-.5.4-.2.22-.3.5-.31.78,0,.1-.02.29-.02.6,0,10.69,0,19.93-7.04,25.45-.17.13-.68.51-.89.51Zm19.83-3.24c-.44,0-1.17-.17-1.17-1.14v-.16c.25-4.16.32-17.68.32-19.45,0-3.15-.21-4.98-.38-5.97,0-.08-.02-.14-.04-.22-.02-.06-.02-.08-.02-.1,0-.25.13-.25.32-.25,2.11.08,4.82.84,4.82,1.59,0,.45-.64,1.02-1.21,1.46-.27.2-.47.52-.59.95-.11.38-.03.78.2,1.09.24.31.6.5.99.5,1.15.13,2.3.25,3.45.35.04,0,.07,0,.11,0,.51,0,.97-.31,1.16-.79.2-.51.04-1.1-.39-1.44-.29-.22-.43-.6-.43-1.12v-.19c.23-2.94.4-5.34.47-7.45,0-.14-.01-.28-.05-.4.05-.13.07-.26.08-.4.01-.49.02-.98.02-1.46,0-.77-.19-5.49-.69-7.97,0-.02,0-.03-.01-.05-.06-.24-.06-.36-.06-.42,0-.09.03-.16.06-.19.53.02,2.51,1.04,4.18,2.29.22.16.48.25.75.25h1.69c.33,0,.66-.14.89-.37.23-.24.36-.56.36-.9-.05-2.16-.22-3.82-.55-5.1,0-.02-.01-.04-.02-.06-.05-.16-.06-.27-.06-.36,0-.03,0-.07.01-.08h0s.11-.05.37-.05c1.49.04,4.05.49,4.75,1.35.07.09.16.17.25.23-.06.1-.11.2-.14.31-.12.39-.56.76-1.24,1.02-.08.03-.14.05-.18.07-.35.16-.61.47-.71.84-.08.33-.11.82-.12,1.83,0,.33.13.65.36.89.23.24.55.37.88.37h2.45c.33,0,.66-.14.89-.37.23-.24.36-.56.36-.9-.03-1.39-.11-2.56-.26-3.57-.05-.35-.24-.65-.52-.85.16-.26.23-.58.17-.89-.02-.09-.02-.15-.02-.21,0-.03,0-.07.01-.08h0s.11-.05.37-.05c1.98.05,4.89.74,4.89,1.71,0,.17-.09.75-1.27,1.21-.02,0-.03.01-.04.02-.06.02-.1.04-.13.06-.27.13-.48.36-.6.63-.11.27-.24.71-.28,2-.01.34.11.67.35.91.23.24.56.38.9.38h2.66c.37,0,.73-.17.96-.46.11-.13.2-.26.29-.39l.03-.04c.2-.28.37-.51.56-.63.22-.14.41-.2.64-.2,1.16,0,4,2.21,4,3.11,0,.81-.95,1.32-1.59,1.46-.08.02-.13.03-.16.04-.43.14-.76.51-.84.95-.06.34-.08.84-.08,1.54v.76c0,2.1.14,4.61.27,6.83v.05c.04.71.08,1.39.11,2.01v.13c0,.06,0,.12,0,.17-.04.56.3,1.09.83,1.27,1.52.53,4.44,2.64,4.44,4.14,0,.17,0,.7-1.21.7h-18.66c-2.38,0-5.26.02-9.17.32-.09,0-.17.02-.25.05-.05,0-.1,0-.16,0-.03,0-.07,0-.1,0-.78.06-1.59.13-2.45.22h-.06c-.38,0-1.06-.43-1.72-1.41-.24-.35-.62-.54-1.03-.54-.12,0-.24.02-.36.05-.52.16-.88.64-.88,1.18,0,.45,0,.93,0,1.41,0,5.26.18,13.92.32,16.31v.07c0,.75-.89,1.51-1.88,1.57-.03,0-.06,0-.1.01-.03,0-.06,0-.09,0Zm10.95-25.45c-.56,0-1.05.37-1.2.92-.12.45-.44.82-.87,1.02-.51.24-.79.8-.69,1.36.11.56.57.97,1.14,1.01,4.06.28,7.26.33,8.8.33h11.43c.43,0,.84-.23,1.06-.6.08-.13.2-.32.35-.54.2-.3.27-.67.18-1.02-.09-.35-.33-.64-.66-.8-.2-.1-.48-.31-.61-.77-.15-.53-.64-.9-1.2-.9h-17.73Zm14.64-6.98c-.69,0-1.24.56-1.24,1.24v2.78c0,.69.56,1.24,1.24,1.24h3.07c.68,0,1.23-.54,1.24-1.22.02-.99.03-1.91.03-2.8,0-.33-.13-.65-.36-.88s-.55-.37-.88-.37h-3.1Zm-7.3,0c-.69,0-1.24.56-1.24,1.24v2.78c0,.69.56,1.24,1.24,1.24h2.56c.68,0,1.23-.54,1.24-1.22.02-.93.03-1.86.03-2.8,0-.33-.13-.65-.36-.88-.23-.23-.55-.37-.88-.37h-2.59Zm-7.1,0c-.66,0-1.21.52-1.24,1.18v.24c-.05.82-.1,1.68-.12,2.57,0,.34.12.66.35.9.23.24.56.38.89.38h2.48c.68,0,1.23-.54,1.24-1.22.02-.93.03-1.86.03-2.8,0-.33-.13-.65-.36-.88-.23-.23-.55-.37-.88-.37h-2.39Zm14.45-6.54c-.68,0-1.23.55-1.24,1.23l-.02,1.09c0,.41-.02.83-.02,1.24,0,.33.12.65.36.89.23.24.55.37.89.37h3.08c.33,0,.65-.13.88-.37s.36-.55.36-.89c0-.95-.03-1.69-.08-2.41-.04-.65-.59-1.16-1.24-1.16h-2.96Zm-7.3,0c-.68,0-1.23.55-1.24,1.23l-.02,1.09c0,.41-.02.83-.02,1.24,0,.33.12.65.36.89.23.24.55.37.89.37h2.58c.69,0,1.24-.56,1.24-1.24v-2.33c0-.69-.56-1.24-1.24-1.24h-2.54Zm-6.62,0c-.31,0-.6.11-.83.32l-.15.11c-.31.23-.5.59-.51.97,0,.11,0,.24,0,.36,0,.39,0,.86-.04,1.52,0,.02,0,.03,0,.05,0,.06,0,.12,0,.17-.02.34.1.68.33.93.24.25.56.4.91.4h2.15c.69,0,1.24-.56,1.24-1.24v-2.33c0-.69-.56-1.24-1.24-1.24h-1.86Z"/><path class="cls-3" d="m725.32,113.67c-.65,0-2.56-1.88-2.6-2.99,2.6.28,4.02.48,4.96.61,1.47.21,1.96.28,4.18.28h1.53c.43,0,.82-.22,1.05-.58,1.05-1.66,2.14-2.63,2.5-2.66.06,0,.12.02.19.03.06.02.12.03.19.03,2.45.96,4.51,3.14,4.51,4,0,.19,0,.7-1.27.7h-8.89c-1.88,0-1.91,0-2.41.09-.42.08-1.21.22-3.88.48h-.06Z"/><path class="cls-3" d="m842.86,158.29c-.74,0-1.44-.59-1.97-1.65-1.65-3.3-6.7-7.17-10.93-10.18-.03-.02-.05-.04-.08-.05-.07-.04-.1-.09-.1-.17s.1-.13.19-.13c3.73,1.05,11.49,4.03,14.15,7.74.41.59.63,1.27.63,1.97,0,1.32-.89,2.48-1.9,2.48Z"/><path class="cls-3" d="m823.82,162.74c-.42,0-1.4-.17-1.4-1.71l.05-2.94c.08-4.09.19-10.28.25-15.4,0-.34-.13-.66-.37-.9-.23-.23-.55-.36-.88-.36,0,0-.02,0-.03,0-3.35.07-8.96.39-10.9.62h-.06c-.43,0-1.95-.98-2.55-2.25-.15-.32-.44-.57-.78-.66-.11-.03-.23-.05-.35-.05-.23,0-.47.07-.67.2-5.63,3.59-9.9,4.92-11.27,4.92-.18,0-.27-.03-.28-.05-.01-.01-.03-.07-.03-.11h0s.14-.24.81-.53c4.09-2,14.54-7.97,24.06-20.72.04-.05.07-.1.1-.16.04-.04.08-.09.12-.14.35-.48.71-.97,1.06-1.46.82-1.13,1.45-2.72,1.76-3.56.01-.04.03-.08.03-.11.01-.05.03-.12.06-.19.13-.38.08-.8-.16-1.13-.23-.33-.61-.53-1.02-.53h-2.44c-.34,0-.66.14-.89.38s-.36.57-.35.9c.04,1.39.09,3.07.09,3.67,0,.22-.06.43-.18.62-.02.03-.03.05-.05.08-.02.02-.05.05-.07.07-.35.41-.96.68-1.54.68-.76,0-1.21-.4-1.21-1.08v-.13c.05-.88.1-2.4.12-3.86,0-.34-.13-.66-.37-.9-.23-.23-.55-.36-.88-.36,0,0-.01,0-.02,0-4.09.07-9.97.2-13.77.62h-.06c-1.18,0-2.92-2.46-2.92-3.24,3.45.41,8.94.72,16.76.92.01,0,.02,0,.03,0,.32,0,.63-.12.86-.34.24-.23.38-.54.39-.87,0-.45.02-.84.03-1.15v-.08c.01-.25.02-.45.02-.56,0-.31-.13-2.87-.44-4.57,0-.07-.02-.14-.04-.22-.02-.06-.02-.08-.02-.1,0-.12.05-.18.17-.19,1.87.13,5.29.97,5.29,2.16,0,.15,0,.56-.95.95-.38.15-.6.28-.77.44-.07.06-.13.13-.18.21-.18.26-.3.63-.38,1.65,0,.03,0,.07,0,.1v1.44c0,.69.56,1.24,1.24,1.24h10.71c.69,0,1.24-.56,1.24-1.24v-1.67c0-.46-.08-2.75-.44-4.76,0-.07-.02-.15-.04-.22-.02-.06-.02-.08-.02-.1,0-.12.05-.18.17-.19,1.87.13,5.29.97,5.29,2.16,0,.15,0,.56-.95.95-.39.16-.61.28-.78.44-.15.14-.27.32-.33.51-.07.2-.16.56-.16,1.4,0,.37,0,.9.02,1.52.02.68.57,1.21,1.24,1.21h6.63c.18,0,.35-.04.51-.11.05-.02.12-.06.16-.09.16-.1.3-.23.4-.4,1.69-2.69,2.89-3.41,3.29-3.41.12,0,.24,0,.36.05.02,0,.04.02.06.02,1.98.75,5.09,3.8,5.1,4.75,0,.58-.72.7-1.33.7h-15.07c-.34,0-.67.14-.9.39s-.36.58-.34.92c.07,1.32.15,2.5.2,3.13v.13c0,1.16-1.05,1.59-1.71,1.59-.82,0-1.33-.56-1.33-1.46v-3.45c0-.69-.56-1.24-1.24-1.24h-4.89c-.55,0-1.03.36-1.19.88-.16.53.05,1.09.5,1.4.8.53,2.92,1.94,3.4,2.8.06.12.13.31.13.44,0,.51-.43.69-.57.75-.38.16-.66.49-.74.9-.08.4.04.82.32,1.12,5.56,5.78,18.78,14.27,28.15,14.5.46,0,.69.09.7.27,0,.33-1.07.95-2.31,1.68-1.98,1.17-2.68,1.67-3,2.13-.19.29-.35.29-.41.29-.85,0-5.05-1.82-10.87-6.02-.22-.16-.47-.24-.73-.24-.12,0-.23.02-.34.05,0-.37-.18-.73-.49-.97-4.58-3.48-8.8-7.46-12.19-11.52-.24-.28-.59-.45-.95-.45h0c-.37,0-.72.17-.96.45-4.24,5.12-8.87,9.52-13.74,13.08-.42.31-.6.84-.47,1.34s.57.86,1.08.91c3.69.35,8.49.52,11.48.56,0,0,.01,0,.02,0,.33,0,.64-.13.87-.36.24-.23.37-.55.37-.89v-.78c0-1.91,0-3.43-.51-5.52v-.06c0-.22.16-.38.38-.38h.13c4.59.57,4.82,1.32,4.82,1.46,0,.31-.36.66-.7.89-.21.13-.38.22-.53.3-.37.19-.65.58-.7.99-.04.39-.05,1.06-.05,1.82,0,.41-.02.83-.03,1.25-.01.34.11.67.35.91.23.24.56.38.9.38h2.8c.38,0,.74-.17.97-.47.86-1.05,2.37-2.77,3.08-2.77.02,0,.04,0,.06,0,.12.04.25.06.38.06.57.21,1.14.49,1.71.84.2.13.43.19.66.19.12,0,.23-.02.34-.05,0,.34.15.67.42.91,1.18,1.04,1.61,1.88,1.63,2.11,0,.46-.47.69-1.4.69h-10.69c-.33,0-.65.13-.88.37-.23.23-.36.55-.36.88,0,6.23.07,12.47.19,18.05v.07c0,1.26-1.13,1.96-1.9,1.96Z"/><path class="cls-3" d="m796.34,160.32c-.22,0-.31-.08-.32-.13,0-.15.17-.4.95-.76,5.28-2.39,14.91-9.77,15.92-13.66,0-.03.01-.06.02-.09l.02-.08c.08-.44.2-.44.29-.44,3.37,2.2,4.57,3.5,4.57,3.94,0,.28-.28.44-.76.44-.23,0-.56-.05-.94-.11-.04,0-.09-.01-.13-.02-.04,0-.07,0-.1-.01-.06,0-.13-.02-.19-.02-.31,0-.61.12-.85.33-.1.1-.25.24-.38.37-5.97,5.59-16.15,10.24-18.11,10.24Z"/><path class="cls-3" d="m887.42,163.69c-.86,0-1.4-.53-1.4-1.4v-.25c.38-3.93.51-11.15.51-13.84,0-.73-.12-2.71-.58-4.98-.08-.38-.33-.71-.69-.88-.17-.08-.35-.12-.53-.12-.2,0-.4.05-.58.14-.31.16-.66.25-.99.25-.73,0-1.21-.47-1.21-1.21v-.19l.08-.87c.32-3.26.42-4.35.42-6.81,0-.58-.08-3.55-.33-6.03-.04-.41-.28-.78-.65-.97-.18-.1-.39-.15-.59-.15s-.4.05-.58.14c-4.1,2.14-7.78,3.58-9.15,3.58-.22,0-.38-.05-.38-.13,0-.16.55-.43.95-.63,6.54-3.05,16.1-9.12,24.31-20.63.61-.89,1.14-2.18,1.59-3.87.03-.1.04-.2.04-.3.03-.2.08-.2.16-.21,5.72,2.63,6.06,3.67,6.08,3.71,0,.04,0,.07,0,.1,0,.11,0,.36-.58.65-.35.18-.6.51-.66.9-.07.39.06.79.33,1.07,5.26,5.44,16.51,11.74,26.99,12.73.72.07.88.26.88.26,0,0,0,.02,0,.05,0,.05,0,.08,0,.08-.12.25-1.34.75-2.32,1.15-1.32.54-2.96,1.2-4.02,1.94-.17.11-.34.13-.46.13-.09-.02-.5-.11-1.54-.55-.16-.06-.32-.1-.48-.1-.35,0-.7.15-.94.43-.35.41-.4.99-.13,1.45.12.21.19.39.19.54,0,.56-.55.9-1.55,1.33-.09.04-.18.08-.26.11-.02,0-.03.02-.05.02-1.12.56-1.12,1.28-1.12,2.59v.57c0,1.47.12,2.85.24,4.31.08.91.16,1.84.2,2.8v.13c0,1.05-.84,1.7-1.64,1.77-.48.04-.9.36-1.06.82-.16.46-.05.97.3,1.31.48.47.75.92.75,1.24,0,.52-.43.83-1.23,1.22-.15.07-.26.13-.35.18-1.07.49-1.15,1.3-1.15,2.48v.7c0,2.6.24,7.19.39,9.94l.06,1.11v.13c0,1.25-1.13,1.71-1.84,1.71-.14,0-1.4-.04-1.4-1.46,0-.2,0-.4.02-.61.01-.34-.11-.67-.34-.91s-.56-.38-.9-.38h-19.68c-.69,0-1.24.56-1.24,1.24v.66c0,.71-.51,1.78-1.9,1.78Zm3.03-11.04c-.33,0-.65.13-.89.37-.23.24-.36.56-.36.89,0,.42.02,1.37.02,1.37,0,.59.02,1.18.03,1.79,0,.68.56,1.23,1.24,1.23h19.83c.67,0,1.22-.53,1.24-1.21.03-1.09.06-2.14.08-3.18,0-.33-.12-.65-.36-.89s-.55-.37-.89-.37h-19.96Zm-.24-6.31c-.09.06-.2.13-.26.17-.23.16-.4.4-.48.66-.09.32-.15.87-.21,1.95,0,.02,0,.04,0,.05,0,.13,0,.28-.02.45-.02.34.11.67.34.92.23.25.56.39.9.39h19.92c.33,0,.66-.14.89-.37.23-.24.36-.56.35-.9-.02-.92-.06-1.79-.13-2.59-.05-.65-.59-1.15-1.24-1.15h-19.06c-.27,0-.53.09-.75.25-.1.07-.19.12-.27.17Zm-3.89-6.7c-.33,0-.65.13-.89.37-.23.24-.36.56-.36.89v.12c0,.63.47,1.15,1.09,1.23,1.31.17,3.97,1.45,4.5,1.76.22.16.48.25.75.25h18.59c.37,0,.72-.16.96-.45.84-1,1.17-1.35,1.52-1.39.21.06.75.26,1.46.64.18.1.38.14.58.14.27,0,.55-.09.77-.27.39-.3.56-.81.44-1.28-.04-.15-.06-.32-.06-.51v-.28c0-.69-.56-1.24-1.24-1.24h-28.1Zm24.16-5.84c-.14,0-.28.02-.41.07-.26.09-.53.27-.93.63-.16.14-.45.45-1.02,1.07l-.31.33c-.33.36-.42.89-.22,1.34.2.45.65.74,1.14.74h5.78c.68,0,1.23-.54,1.24-1.22,0-.31.02-.98.02-.98.02-.6.03-1.17.03-1.74,0-1.25-.05-2.51-.15-4.11-.04-.65-.59-1.16-1.24-1.16h-3.37c-.56,0-1.05.37-1.2.9s.07,1.11.54,1.4c1.61,1,2.19,1.79,2.19,2.2-.02.47-.63.57-1.14.57-.17,0-.39,0-.67-.05-.07-.01-.14-.02-.21-.02h-.06Zm-6.88-5.01c-.39,0-.76.18-.99.5-.1.13-.25.25-.44.32-.01,0-.19.09-.19.09-.42.2-.7.62-.71,1.08,0,.16,0,.34,0,.43-.06,2.73-.06,4-.06,4.76,0,.38,0,.61,0,.81.01.68.57,1.22,1.24,1.22h1.17c.47,0,.89-.26,1.11-.67,1.17-2.27,1.94-4.14,2.44-7.04,0-.02,0-.04,0-.06.04-.35-.07-.73-.3-.99-.24-.27-.57-.44-.93-.44h-2.34Zm-11.43,0c-.61,0-1.13.44-1.23,1.04s.25,1.18.82,1.38c1.15.4,3.09,1.36,3.09,3.29,0,.54-.18,1.05-.51,1.44-.31.37-.39.89-.18,1.33.2.44.64.72,1.13.72h1.94c.69,0,1.24-.56,1.24-1.24v-.53c0-2.69-.02-4.89-.06-6.22-.02-.67-.57-1.21-1.24-1.21h-4.99Zm-5.57.26c-.22,0-.44.06-.64.18-.05.03-.17.1-.2.12-.32.18-.55.51-.61.87-.06.34-.09.9-.13,1.65,0,.02,0,.04,0,.06,0,.39-.02.81-.03,1.24-.02.5-.03.98-.03,1.46s.01.95.03,1.46l.02.69c.02.68.57,1.22,1.24,1.22h4.8c.49,0,.93-.29,1.13-.73.2-.44.12-.97-.2-1.33-.22-.25-.4-.56-.55-.92-.58-1.34-1.9-2.68-3.24-3.94-.13-.13-.35-.35-.38-.43.14-.49-.04-1.03-.45-1.34-.22-.17-.49-.25-.76-.25Zm2.13-7.79c-.26,0-.52.08-.75.25-1.24.93-2.33,1.72-3.33,2.4-.37.25-.57.68-.54,1.13.04.45.31.84.71,1.03.67.31,1.22.61,1.63.87.2.13.43.2.67.2h27c.35,0,.69-.15.92-.41.11-.12.66-.71,1.31-.99.43-.19.72-.6.75-1.07.03-.47-.21-.91-.62-1.15-1.6-.93-3.17-1.92-4.65-2.95-.21-.15-.46-.22-.71-.22-.21,0-.42.05-.61.16-.41.23-.66.68-.64,1.15,0,.57-.4.85-1.2.85h-8.38c-2.04,0-4.98.24-8.51.7h-.13c-.5,0-1.24-.55-1.97-1.47-.25-.31-.61-.47-.98-.47Zm11.75-10.64c-.35,0-.68.14-.92.4-1.63,1.77-4.47,4.6-7.54,7.25-.37.32-.52.84-.38,1.31s.56.81,1.05.87c3.4.39,5.6.47,7.86.47h1.01c.32,0,.63-.13.86-.35.04-.04.19-.2.19-.2.02-.02.04-.04.05-.06,1.1-1.27,2.13-2.47,2.47-2.56.43-.12.77-.47.87-.91s-.03-.9-.36-1.2c-1.62-1.5-3.03-3.03-4.2-4.54-.22-.29-.56-.47-.93-.48-.02,0-.04,0-.05,0Z"/><path class="cls-3" d="m672.38,162.74c-.22,0-1.33-.07-1.33-1.52v-.19c.34-5.2.38-8.53.38-10.85,0-6.05-.35-10.09-.68-11.86,0-.04-.02-.08-.03-.11-.02-.08-.04-.17-.05-.26-.04-.45-.31-.84-.72-1.03-.17-.08-.35-.12-.52-.12-.26,0-.51.08-.73.23-.08.06-.16.13-.26.2-.26.22-.4.31-.57.31-.43-.03-1.85-1.08-3.4-2.95-.24-.29-.59-.45-.96-.45-.1,0-.2.01-.3.04-.46.12-.82.49-.92.96-.64,3.14-1.34,5.82-2.16,8.19-.21.6.07,1.26.64,1.53,5.53,2.63,5.96,5.31,5.96,6.07,0,1.18-.67,2.03-1.59,2.03-.79,0-1.69-.65-2.54-1.84-.71-1-1.67-2.02-2.76-2.95-.23-.19-.52-.3-.81-.3-.08,0-.16,0-.23.02-.37.07-.69.31-.87.64-5.39,10.16-14.55,13.27-15.75,13.38-.11,0-.21-.08-.21-.13,0-.37,1.29-1.12,1.78-1.4,5.22-3.02,9.07-7.52,11.8-13.77.27-.62,0-1.33-.61-1.62-.9-.43-1.8-.78-2.69-1.04-.12-.03-.24-.05-.36-.05-.21,0-.43.06-.62.16-.3.17-.51.45-.59.78l-.2.82c-.32,1.21-1.67,1.97-2.73,1.97-.77,0-1.27-.45-1.27-1.14,0-.27.07-.58.19-.89,1.7-4.67,3.47-11.96,4.88-20.04.07-.38-.05-.76-.3-1.05-.24-.26-.57-.41-.92-.41-.03,0-.06,0-.09,0-1.62.12-3.33.33-4.96.62h-.06c-.59-.02-2.34-2.09-2.41-3.06,3.23.5,6.83.61,8.23.64,0,0,.01,0,.02,0,.62,0,1.15-.46,1.23-1.08.25-1.82.45-3.57.61-5.2.11-1.23.38-4.33.38-6.79,0-.65,0-1.21-.06-1.71,0-.2-.02-.34-.04-.46-.01-.07-.02-.13-.02-.18,0-.13.06-.19.19-.19,3.41,0,6.41,1.38,6.41,2.22,0,.49-.49,1-1.33,1.4-.76.34-1.16.57-1.41.96-.23.36-.31.81-.46,1.79l-1.21,7.74c-.06.36.05.73.28,1,.24.28.58.44.95.44h3.02c.34,0,.66-.14.89-.38.07-.07.16-.17.29-.32.93-1.1,1.11-1.27,1.4-1.27.33.01,1.46.53,2.62,1.27.8.51,2.14,1.49,2.14,2.22,0,.55-.6.94-1.21,1.29l-.06.03c-.11.06-.21.12-.29.18-.01,0-.03.02-.04.03-.16.12-.34.18-.49.23-.09.03-.18.06-.23.09-.25.11-.46.29-.59.52-.14.24-.24.56-.32.99l-.04.24c-.25,1.57-.51,3.19-.8,4.84-.07.38.05.77.31,1.06.24.26.57.4.92.4.04,0,.07,0,.11,0h.77c1.53,0,3.28-.24,4.4-.47.58-.12,1-.63,1-1.22v-4.91c0-6.95,0-12.44-.69-15.43,0-.03-.01-.06-.02-.09-.05-.15-.05-.26-.05-.35,0-.07.01-.11.02-.13,0,0,0,0,0,0,.64.13,3.45,1.25,4.88,2.16.2.13.43.2.67.2.12,0,.23-.02.35-.05,2.35-.68,12.34-3.92,14.73-6.15.11-.1.2-.23.27-.37.03-.06.09-.17.14-.17.14.07.56.36,1.68,1.44.74.71,1.63,1.68,1.63,2.25,0,.31-.29.76-1.08.76-.19,0-.37,0-.61-.06-.02,0-.03,0-.05-.01-.36-.07-.63-.12-.86-.12-.27,0-.69.03-1.08.19-1.23.34-2.47.67-3.71,1-.58.15-.97.7-.92,1.3,0,.03,0,.07,0,.11,0,.26-.24.58-.61.81-.37.23-.59.63-.59,1.07.01,2.15.23,3.82.42,4.84.11.59.62,1.02,1.22,1.02h4.77c.44,0,.84-.23,1.07-.6,1.11-1.84,1.97-2.89,2.36-2.89,1.49,0,4.89,3.31,4.89,4.44,0,.19,0,.63-1.21.63h-10.76c-.41,0-.8.2-1.03.54s-.28.77-.13,1.16c2.75,6.98,7.93,9.33,9.45,9.89.14.05.28.08.43.08.35,0,.69-.15.93-.42.48-.54.99-1.62,1.55-2.86.36-.8.73-1.62,1.12-2.26.02-.03.03-.05.04-.08.05-.1.15-.28.23-.28.04,0,.06.07.06.13,0,.31-.12.98-.27,1.76-.22,1.19-.49,2.67-.49,3.7,0,.22.01.42.04.58.04.25.15.49.33.68.65.69,1.03,1.41,1.03,1.98,0,.86-.84,1.46-2.03,1.46-.36,0-1.68-.25-3.43-1.03-.16-.07-.34-.11-.51-.11-.4,0-.79.19-1.03.54-.34.5-.28,1.16.15,1.59.6.6.81,1.06.81,1.3,0,.52-.4.85-1.08,1.25l-.05.03c-.08.04-.14.08-.2.12-.65.43-1,.67-1.17,1.29-.17.63-.17,1.66-.17,3.72,0,3.68.15,8.52.38,12.63v.13c0,1.47-1.21,2.15-2.03,2.15-.23,0-1.4-.08-1.4-1.65v-1.29c0-.69-.56-1.24-1.24-1.24h-11.89c-.34,0-.66.14-.89.38-.23.24-.36.57-.35.9l.03,1.2c0,.64-.34,1.09-.63,1.35-.39.35-.91.55-1.4.55Zm3.21-13.33c-.69,0-1.24.56-1.24,1.24v4.81c0,.69.56,1.24,1.24,1.24h11.93c.68,0,1.24-.55,1.24-1.23.01-.96.04-1.89.06-2.79v-.08c.02-.67.04-1.32.05-1.94,0-.33-.12-.66-.36-.89s-.55-.37-.89-.37h-12.03Zm.54-7.68c-.26,0-.51.08-.72.23-.95.68-.96,1.32-.98,2.37,0,.21,0,.44-.02.7,0,.51-.02.99-.03,1.44-.01.34.11.67.35.91.23.24.56.38.9.38h12.01c.33,0,.65-.13.89-.37.23-.24.36-.56.36-.89-.02-1.46-.07-2.65-.15-3.63-.06-.64-.59-1.14-1.24-1.14h-11.35Zm-20.27-17.77c-.61,0-1.13.44-1.23,1.04-.76,4.51-1.92,11-3.1,16.32-.08.36,0,.73.22,1.02s.56.47.93.49c.98.05,2.02.18,3.09.39.08.01.16.02.23.02.54,0,1.02-.35,1.19-.88,1.73-5.57,3.01-14.03,3.33-17.03.04-.35-.08-.7-.31-.96-.24-.26-.57-.41-.93-.41h-3.42Zm29.26,5.69c-.24,0-.48.07-.69.21-.75.5-2.34,1.28-5.67,2.79-2.1.95-4.6,2.04-6.87,3-.47.2-.77.66-.76,1.17s.33.96.8,1.14c1.31.49,2.97,1.31,3.8,1.85.2.13.44.21.69.21h10.85c.42,0,.82-.22,1.05-.57.24-.38.84-1.27,1.21-1.46.13-.06.25-.13.44-.13.03,0,.12,0,.29.04.1.02.19.03.29.03.48,0,.92-.27,1.13-.72.25-.53.09-1.17-.38-1.52-2-1.49-3.72-3.33-5.13-5.48-.18-.28-.47-.47-.79-.54-.08-.02-.17-.03-.25-.03Zm-10.73-6.77c-.69,0-1.24.56-1.24,1.24v6.71c0,.38.17.74.47.98.22.18.49.27.77.27.1,0,.19-.01.29-.03,2.88-.68,5.66-1.44,8.5-2.31.26-.09.49-.15.71-.19.38-.07.71-.32.88-.67.17-.35.17-.76,0-1.1-.62-1.25-1.15-2.6-1.59-4.01-.16-.52-.64-.88-1.19-.88h-7.59Zm5.89-9.3c-.08,0-.17,0-.25.03-1.32.27-2.72.54-4.27.82-.26.05-.5.17-.68.36-.25.26-.63.53-1.11.8l-.13.07c-.37.2-.62.57-.66.98-.02.26-.04.66-.04,1.23v2.18c0,.69.56,1.24,1.24,1.24h6.58c.37,0,.71-.16.95-.44.24-.28.34-.65.28-1.01-.15-.87-.26-1.79-.36-2.8-.1-.96-.21-1.78-.34-2.45-.06-.33-.25-.62-.53-.8-.21-.14-.45-.21-.69-.21Z"/><path class="cls-1" d="m332.88,119.13c0,.09-.02.17-.09.22-.96.11-1.61.39-1.7,1.24-.06.64-.08,1.57-.08,2.57,0,1.25.03,2.63.06,3.69.05,1.77,0,2.36,1.33,2.48.06.06.12.19.12.29,0,.09-.05.16-.17.16,0,0-1.15-.09-2.31-.09-.57,0-1.15.03-1.58.09h-.03c-.11,0-.17-.06-.17-.14,0-.09.06-.2.17-.31,1.27-.17,1.46-.31,1.46-1.78v-.46c-.02-.73-.03-2.03-.03-3.27,0-1.09.02-2.11.05-2.65,0-.06-.02-.09-.05-.09-.08,0-2.59,4.91-3.98,8-.2.46-.28.59-.53.59h-.02c-.17,0-.23-.17-.33-.48-.17-.64-.79-1.95-1.5-3.43-.74-1.58-1.46-2.93-2.05-4.39-.08-.2-.12-.28-.16-.28-.14,0-.34,4.9-.34,5.16.02,2.93.11,2.91,1.32,3.08.09.09.12.19.12.28s-.06.16-.16.17c-.02,0-.99-.11-2.01-.11-.51,0-1.02.03-1.44.11h-.03c-.08,0-.12-.06-.12-.16,0-.08.05-.2.14-.29,1.3-.12,1.47-.67,1.6-2.91.03-.74.25-4.09.37-5.5,0-.09.02-.17.02-.25.53.33-9.8-1.39,1.07-1.6.02.19.31.87.42,1.15,1.22,3.13,2.96,5.84,3.52,7.41.02.06.03.11.05.11,0,0,.02-.03.05-.06,3.19-6.21,3.97-7.76,4.11-8.4.05-.17.11-.29.2-.31,0,0,.48.02,1.07.02.53,0,1.15-.02,1.56-.08.03,0,.08.12.08.23Z"/><path class="cls-1" d="m348.79,129.98c-3.53,0-5.55-2.6-5.55-5.59,0-3.16,2.39-5.72,5.59-5.72s5.49,2.56,5.49,5.72-1.97,5.59-5.53,5.59Zm-.05-10.82c-2.9,0-4.08,2.62-4.08,4.93,0,.93.29,5.41,4.23,5.41,3.01,0,4.01-2.53,4.01-4.93,0-2.71-1.29-5.41-4.17-5.41Z"/><path class="cls-1" d="m369.36,129.81h-.05c-.99-.02-1.95-.12-2.93-.12-.4,0-.82.02-1.24.08h-.03c-.09,0-.14-.06-.14-.14,0-.09.05-.2.17-.29,1.33-.09,1.33-.45,1.38-1.8,0-.5.02-1.16.02-2.01.02-.36.02-.98.02-1.58,0-1.98-.05-3.18-.12-3.73-.03-.28-.08-.78-1.16-.78h-.05c-.09,0-.14-.12-.14-.25,0-.11.03-.2.12-.2h.02c.25.03.54.03.87.03.9,0,1.95-.08,2.67-.08,2.11,0,3.64.68,3.64,2.34-.02,1.64-1.32,2.36-2.34,2.49-.06.02-.12.03-.12.05,0,0,.03.02.14.02,1.44.06,3.22,1.04,3.22,2.79,0,2.39-2.31,3.19-3.94,3.19Zm-.62-10.44c-1.01,0-1.07.19-1.1.82v3.13c0,.06.02.34.31.34h.06c.15-.02.48-.05.77-.06.73-.03,2.31-.14,2.31-2.03,0-1.43-.95-2.2-2.36-2.2Zm.29,4.74h-.19c-.93,0-1.21.02-1.21.37,0,.87,0,2,.02,2.46.06,1.7.25,2.42,1.74,2.42s2.57-1.16,2.57-2.51-.62-2.74-2.93-2.74Z"/><path class="cls-1" d="m394.69,127.99c-.06,0-.12-.05-.14-.06-3.15-3.36-3.29-3.38-3.35-3.38s-.12.03-.19.09c-1.16,1.16-2.29,2.32-3.19,3.29-.02.02-.09.06-.14.06-.11,0-.5-.42-.5-.5,0-.06.05-.12.06-.14.98-.91,2.12-2.03,3.28-3.19.05-.05.08-.11.08-.17s-.02-.11-.08-.17c-1.16-1.16-2.31-2.28-3.3-3.19-.02-.02-.05-.08-.05-.12,0-.12.37-.5.51-.5.05,0,.09.02.11.03.36.37,3.21,3.43,3.38,3.43.09,0,.78-.65,3.36-3.43.02-.02.06-.03.11-.03.17,0,.51.43.51.51,0,.05-.02.09-.03.11-3.35,3.13-3.41,3.27-3.41,3.36,0,.11.03.16,3.39,3.36.02.02.06.09.06.14,0,.11-.42.5-.5.5Z"/><path class="cls-1" d="m329.5,153.48c.09,0,.16.09.16.19,0,.17-.17.31-1.3.31s-2.06-.33-2.76-1.27c-.9-1.22-1.49-2.67-2.51-3.92-.12-.14-.28-.28-.53-.28-.02,0-.39.02-.67.03-.12,0-.22.06-.22.17,0,4.54.11,4.57,1.64,4.71.09.08.14.17.14.26,0,.11-.06.19-.19.19,0,0-1.13-.09-2.34-.09-.6,0-1.22.02-1.74.09h-.03c-.09,0-.15-.08-.15-.17s.05-.2.15-.28c1.35-.17,1.38-.28,1.39-2.79.02-.73.03-2.25.03-3.42,0-.54,0-.99-.02-1.29-.08-2.32.03-2.11-1.46-2.4-.11-.06-.16-.17-.16-.28,0-.09.06-.19.17-.19h.02c.5.03.91.05,1.3.05.77,0,1.43-.05,2.34-.09h.33c1.92,0,3.39.77,3.39,2.45,0,1.57-1.1,2.46-2.36,2.73-.08.02-.11.05-.11.08,0,.06.11.15.15.22,1.1,1.29,1.58,2.82,2.7,4.04.64.71,1.29.98,2.15.98.14,0,.28,0,.43-.02h.02Zm-6.66-10.03c-.74,0-1.07.12-1.1.64-.05.4-.05.65-.06,1.61v2.09c0,.16.08.28.19.28h.28c1.27,0,3.15-.31,3.15-2.29s-1.58-2.32-2.45-2.32Z"/><path class="cls-1" d="m346.72,153.71c-.03.08-.12.14-.37.14,0,0-2.31-.05-4.43-.05-1.18,0-2.31.02-2.93.06h-.02c-.12,0-.19-.08-.19-.17,0-.08.05-.19.16-.26,1.04-.09,1.21-.14,1.33-.65.09-.36.11-2.4.11-6.37,0-2.57-.03-2.98-1.5-2.98-.09-.06-.14-.17-.14-.25,0-.11.05-.19.14-.19h.03c.4.05,1.15.06,2,.06,1.92,0,4.42-.08,4.79-.08h.05c.08,0,.28,0,.28.15v.02c0,.06-.02.12-.02.2,0,.45.11,1.07.11,1.58v.09c0,.12-.12.19-.23.19-.06,0-.12-.02-.14-.06-.62-1.55-1.19-1.7-2.84-1.7-.37,0-.7.02-.99.08-.43.05-.43.59-.43,2.57,0,.48.02.99.02,1.44,0,.23.2.26.94.26.23,0,.43-.02.65-.05.5-.05,1.38.08,1.63-1.32.02-.09.14-.15.25-.15s.2.05.2.17v.03c-.06.39-.08.88-.08,1.36,0,.96.08,1.88.08,1.88v.02c0,.09-.09.12-.2.12-.12,0-.23-.05-.25-.14-.11-1.44-1.19-1.47-2.32-1.47-.87,0-.9,0-.9.28v.73c0,3.55,0,3.83,1.58,4.11.16.03.33.05.54.05,1.49,0,2.56-.45,3.66-2.11.03-.05.08-.08.12-.08.12,0,.25.11.25.2v.02c-.19.65-.77,1.81-.93,2.26Z"/><path class="cls-1" d="m361.78,153.68c0,.09-.06.17-.17.19-.02,0-1.18-.11-2.32-.11-.57,0-1.15.03-1.58.11h-.03c-.09,0-.15-.08-.15-.17s.05-.2.15-.28c1.53-.17,1.38-.48,1.43-2.49.02-.74.03-1.74.03-2.67s-.02-1.83-.03-2.37c-.08-2.43-.14-2.31-1.49-2.43-.09-.06-.12-.17-.12-.25,0-.11.05-.2.17-.2,0,0,1.08.08,2.25.08.59,0,1.19-.02,1.69-.08h.03c.09,0,.17.11.17.22,0,.09-.05.17-.15.22-1.5.14-1.35.28-1.43,2.42-.02.74-.03,1.52-.03,2.29,0,.93.02,1.88.03,2.77.05,1.87-.06,2.34,1.43,2.49.09.08.14.17.14.26Z"/><path class="cls-1" d="m383.11,149.46c.09,0,.14.08.14.19s-.06.23-.22.26c-.81.19-.87.42-.87,1.66,0,.77.08,1.41.5,1.7.03.02.03.05.03.06,0,.09-.14.22-.11.19,0,0,0-.02-.02-.02-.19,0-2.06.6-4.04.6-3.13,0-6.09-1.92-6.09-5.78v-.03c0-3.02,2.51-5.59,5.86-5.61,1.38,0,2.2.28,3.12.28h.29c.22,0,.26.05.28.34.02.39.28,1.6.28,2.18,0,.09-.14.16-.25.16-.08,0-.16-.03-.17-.09-.57-1.74-1.89-2.36-3.49-2.36-2.08,0-4.48,1.64-4.48,5.19,0,3.36,2.36,5.21,4.82,5.21,2.32,0,2.4-1.49,2.4-2.08,0-.16-.02-.33-.03-.56-.08-1.04-.6-.93-1.57-1.01-.12-.02-.19-.14-.19-.26,0-.11.05-.2.17-.2.02,0,.95.06,1.94.06.59,0,1.21-.02,1.66-.09h.03Z"/><path class="cls-1" d="m401.38,153.71c-.03.08-.12.14-.37.14,0,0-2.31-.05-4.43-.05-1.18,0-2.31.02-2.93.06h-.02c-.12,0-.19-.08-.19-.17,0-.08.05-.19.16-.26,1.04-.09,1.21-.14,1.33-.65.09-.36.11-2.4.11-6.37,0-2.57-.03-2.98-1.5-2.98-.09-.06-.14-.17-.14-.25,0-.11.05-.19.14-.19h.03c.4.05,1.15.06,2,.06,1.92,0,4.42-.08,4.79-.08h.05c.08,0,.28,0,.28.15v.02c0,.06-.02.12-.02.2,0,.45.11,1.07.11,1.58v.09c0,.12-.12.19-.23.19-.06,0-.12-.02-.14-.06-.62-1.55-1.19-1.7-2.84-1.7-.37,0-.7.02-.99.08-.43.05-.43.59-.43,2.57,0,.48.02.99.02,1.44,0,.23.2.26.94.26.23,0,.43-.02.65-.05.5-.05,1.38.08,1.63-1.32.02-.09.14-.15.25-.15s.2.05.2.17v.03c-.06.39-.08.88-.08,1.36,0,.96.08,1.88.08,1.88v.02c0,.09-.09.12-.2.12-.12,0-.23-.05-.25-.14-.11-1.44-1.19-1.47-2.32-1.47-.87,0-.9,0-.9.28v.73c0,3.55,0,3.83,1.58,4.11.16.03.33.05.54.05,1.49,0,2.56-.45,3.66-2.11.03-.05.08-.08.12-.08.12,0,.25.11.25.2v.02c-.19.65-.77,1.81-.93,2.26Z"/><path class="cls-1" d="m422.27,147.73c0,1.78.06,4.37.2,5.83v.14c0,.37-.16.47-.34.47-.2,0-.34-.12-.56-.48-.51-.81-1.7-2.36-3.13-4.01-1.47-1.69-3.02-3.5-4.09-4.87t-.03-.02s-.08.03-.08.08c0,.45-.02.98-.02,1.53,0,1.67.05,3.61.11,4.6.15,2.15.45,2.22,1.69,2.42.09.08.14.19.14.28s-.05.17-.17.17c0,0-1.1-.11-2.22-.11-.57,0-1.13.03-1.58.11h-.03c-.08,0-.14-.08-.14-.17s.05-.19.14-.28c1.38-.17,1.46-.51,1.46-3.98,0-1.39-.02-3.3-.02-4.9,0-.48-.23-.91-1.52-1.08-.06-.05-.14-.17-.14-.28,0-.09.06-.17.23-.17,0,0,.7.06,1.41.06.33,0,.65-.02.93-.05h.02s.06,0,.08.06c.12.46.29.59.87,1.29.9,1.12,1.94,2.34,3.05,3.55,1.04,1.15,2.12,2.56,3.04,3.61.03.03.05.05.08.05s.05-.03.05-.12v-.05c-.05-.57-.06-1.46-.06-2.32,0-.95.02-1.89.02-2.46v-.31c-.02-1.74.16-2.62-1.75-2.85-.09-.08-.14-.17-.14-.26s.06-.19.19-.19c0,0,1.13.08,2.26.08.57,0,1.13-.02,1.55-.08h.03c.09,0,.14.08.14.19,0,.09-.03.19-.12.26-1.35.17-1.53.22-1.53,4.28Z"/><path class="cls-3" d="m978.27,122.38c.33,3.88.3,6.62.27,7.68,0,.28-.2.53-.46.59-1.39.33-5.59,1.59-6.72,4.73-.17.48-.78.56-.97.13-.38-.86-.81-2.03-1.01-3.3-.37-2.27,1.91-4.97,4.76-7.45,2.19-1.91,1.68-1.47,3.34-2.72.34-.25.77-.07.8.33Z"/><path class="cls-3" d="m969.22,140.71c.78,4.59-.18,9.17-4.44,13-.3.27-.88.24-1.12-.08-.74-.97-.92-3.3-2.51-7.77-.12-.33.06-.67.42-.78,1.38-.43,3.95-1.48,6.14-4.72.42-.62,1.43-.39,1.51.35Z"/><path class="cls-3" d="m971,139.37l5.83,6.37c.09.1.22.17.36.19l6.82.96c.66.09,1.18-.77.77-1.29-1.43-1.8-3.44-4.86-3.29-7.77.02-.41-.26-.73-.65-.71-.95.04-2.68.12-4.31.16-1.81.05-3.67.37-5.08.78-.56.16-.81.9-.44,1.3Z"/><path class="cls-3" d="m968.33,136.5c-1.06-1.17-3.25-3.96-3.41-7.12-.02-.4-.44-.63-.81-.46-1.05.5-2.97,1.29-4.85,1.44-2.04.17-4.17-.29-5.63-.72-.54-.16-.99.48-.65.92,1.34,1.73,3.69,4.51,6.1,6.11,3.53,2.34,7.36,1.37,9,.76.39-.15.53-.64.25-.94Z"/><path class="cls-3" d="m130.59,122.38c.33,3.88.3,6.62.27,7.68,0,.28-.2.53-.46.59-1.39.33-5.59,1.59-6.72,4.73-.17.48-.78.56-.97.13-.38-.86-.81-2.03-1.01-3.3-.37-2.27,1.91-4.97,4.76-7.45,2.19-1.91,1.68-1.47,3.34-2.72.34-.25.77-.07.8.33Z"/><path class="cls-3" d="m121.54,140.71c.78,4.59-.18,9.17-4.44,13-.3.27-.88.24-1.12-.08-.74-.97-.92-3.3-2.51-7.77-.12-.33.06-.67.42-.78,1.38-.43,3.95-1.48,6.14-4.72.42-.62,1.43-.39,1.51.35Z"/><path class="cls-3" d="m123.32,139.37l5.83,6.37c.09.1.22.17.36.19l6.82.96c.66.09,1.18-.77.77-1.29-1.43-1.8-3.44-4.86-3.29-7.77.02-.41-.26-.73-.65-.71-.95.04-2.68.12-4.31.16-1.81.05-3.67.37-5.08.78-.56.16-.81.9-.44,1.3Z"/><path class="cls-3" d="m120.65,136.5c-1.06-1.17-3.25-3.96-3.41-7.12-.02-.4-.44-.63-.81-.46-1.05.5-2.97,1.29-4.85,1.44-2.04.17-4.17-.29-5.63-.72-.54-.16-.99.48-.65.92,1.34,1.73,3.69,4.51,6.1,6.11,3.53,2.34,7.36,1.37,9,.76.39-.15.53-.64.25-.94Z"/><line class="cls-2" x1="1009.84" y1="135.05" x2="1052.54" y2="135.05"/><line class="cls-2" x1="1009.84" y1="141.07" x2="1027.64" y2="141.07"/><line class="cls-2" x1="80.44" y1="135.05" x2="37.75" y2="135.05"/><line class="cls-2" x1="80.44" y1="141.07" x2="62.64" y2="141.07"/><path class="cls-6" d="m310.07,87.45l-.63.4.06-.74c.13-1.73-.08-3.15-.61-4.1-.55-.99-1.48-1.54-2.59-1.54-.12,0-.24,0-.36.01-3.53.36-6.28,6.88-6.62,11.21-.27,3.38.81,5.64,2.97,6.21.49.13,1,.11,1.51-.08.72-.26,1.44-.84,2.13-1.73,1.19-1.52,2.34-4.1,3.01-6.73l.05-.18.18-.07c.73-.28,1.44-.66,2.1-1.08l.76-3.22c-.5.58-1.18,1.15-1.96,1.64Zm-3.42,3.75c-.61,1.91-1.42,3.57-2.28,4.68-.65.83-1.17,1.12-1.48,1.12-.03,0-.06,0-.09-.01-1.63-.43-1.6-3.04-1.51-4.14.09-1.21.36-2.47.79-3.76l.23-.71.43.61c.68.95,1.56,1.37,2.18,1.55.42.11.86.16,1.37.17h.52l-.16.49Zm.7-2.83l-.05.27-.26.04c-.26.04-.5.06-.73.06-.31,0-.59-.03-.84-.11-.39-.11-1.58-.45-1.74-2.93v-.13s.06-.1.06-.1c.48-.73,1.22-1.65,2-1.93.12-.05.24-.08.35-.09.49-.05.79.1,1.02.52.63,1.13.39,3.24.19,4.4Zm6.94-2.83c-.06-.26-.21-.48-.43-.63-.22-.14-.49-.19-.75-.13-.02,0-.05.01-.07.02l-.84,3.55c.8-.62,1.47-1.34,1.95-2.07.11-.16.16-.34.16-.53,0-.07-.01-.14-.02-.21Z"/><path class="cls-6" d="m314.29,85.54c-.06-.26-.21-.48-.43-.63-.22-.14-.49-.19-.75-.13-.02,0-.05.01-.07.02l-.84,3.55c.8-.62,1.47-1.34,1.95-2.07.11-.16.16-.34.16-.53,0-.07-.01-.14-.02-.21Zm14.75-3.74c-.49-.24-1.09-.03-1.32.46-.03.06-.05.11-.09.17-.01,1.07.18,2.08.57,3.01.78-1.23,1.25-2.22,1.3-2.33.07-.14.1-.28.1-.43,0-.36-.21-.71-.56-.88Zm-2.08,1.89c-1.43,2.48-3.67,5.26-5.47,4.97l-.13-.02-.09-.09c-1.06-1.15.79-7.33,2.53-11.35.14-.33.1-.7-.11-.99-.22-.28-.57-.43-.92-.39-.97.13-2.92,1.61-6.7,7.96l-1.03,1.72c.06.42-.03.83-.26,1.19-.53.82-1.28,1.61-2.18,2.31-.21.17-.44.33-.67.49l-.82,3.5c-.11.48.16.98.63,1.15.21.08.43.08.64,0,.25-.08.46-.25.58-.49,2.57-5.1,4.66-8.62,5.96-10.69l1.25-1.97-.57,2.26c-.71,2.86-.76,4.98-.14,6.12.36.66.96,1.09,1.69,1.22,2.61.43,5.02-2.17,6.56-4.43-.39-.77-.64-1.6-.75-2.48Zm-10.48-6.1c-.14-.23-.36-.38-.62-.44-.08-.02-.15-.03-.23-.03-.44,0-.85.31-.96.76l-1.44,6.13c.36-.02.73.07,1.04.27.34.23.59.56.7.94l1.63-6.88c.06-.26.01-.53-.12-.75Z"/><path class="cls-6" d="m338.72,72.99c-.21-.53-.82-1.43-2.5-1.51-.07-.01-.13-.01-.19-.01-2.72,0-5.52,2.99-6.99,5.83-.69,1.33-1.13,2.64-1.31,3.89.48-.28,1.09-.33,1.63-.07.62.3.98.9.99,1.54.16.05.34.05.51,0,.04,0,3.19-.86,5.37-3.16.91-1.02,3.33-4.41,2.49-6.51Zm-3.93,5.15c-1.6,1.68-3.91,2.45-4.36,2.59l-.66.2.19-.66c.26-.88.59-1.6.83-2.06,1.21-2.33,3.15-4.26,4.7-4.68.22-.06.43-.09.62-.08.24,0,.44.05.58.11l.18.07.04.19c.21.88-1.17,3.31-2.12,4.32Zm8.08,1.76c-.23-.13-.5-.16-.75-.08-.25.07-.46.24-.59.48-1.47,2.72-5.59,6.2-8.52,6.45-1.49.13-2.12-.67-2.32-.93-.39-.5-.68-1.06-.86-1.68-.28.53-.7,1.28-1.24,2.09.16.28.34.55.54.81.97,1.24,2.37,1.82,4.05,1.68.41-.03.84-.11,1.29-.23,3.53-.96,7.32-4.51,8.8-7.25.26-.48.08-1.09-.4-1.34Zm-13.83,1.9c-.49-.24-1.09-.03-1.32.46-.03.06-.05.11-.09.17-.01,1.07.18,2.08.57,3.01.78-1.23,1.25-2.22,1.3-2.33.07-.14.1-.28.1-.43,0-.36-.21-.71-.56-.88Z"/><path class="cls-6" d="m368.05,75.79c-.05-.26-.19-.49-.41-.64-.44-.32-1.06-.21-1.38.24-.11.15-.22.31-.33.46l-1.26,2.97c-.17.39-.07.83.23,1.1,1.39-1.22,2.53-2.75,2.98-3.39.12-.18.18-.38.18-.58,0-.05,0-.11-.01-.16Zm-4.07,2.74l.35-.83c-1.08,1.11-2.18,1.95-2.86,2.02l-.3.03-.09-.3c-.44-1.42.56-6.1,1.77-9.82.16-.49-.09-1.03-.58-1.22-.48-.2-1.04.02-1.26.5l-.24.53-.4-.42c-.47-.55-.98-.95-1.51-1.17-.35-.15-.71-.23-1.07-.23-.38,0-.75.09-1.12.24-2.42,1.06-7.49,10.55-6.8,13.77.23,1.08.98,1.71,2.1,1.71,1.73-.01,3.93-1.94,6.38-5.58l.74-1.09-.05,1.31c-.04,1.17.08,2.04.38,2.61.33.63.8.89,1.15.99.41.13.85.15,1.31.05.83-.16,1.66-.63,2.44-1.23-.47-.49-.62-1.22-.34-1.87Zm-4.4-6.74c-2.77,5.25-5.72,9.08-7.34,9.53l-.45.12-.02-.47c-.05-.87.43-2.86,1.91-5.8,1.43-2.83,3.09-5.12,3.75-5.48.1-.04.16-.06.22-.07.2-.04.35.01.44.05.71.3,1.32,1.43,1.5,1.77l.08.18-.09.17Z"/><path class="cls-6" d="m365.92,80.01c-.06.06-.12.12-.19.18.26-.04.49-.18.64-.39.48-.65.94-1.26,1.39-1.85-.5.63-1.13,1.37-1.84,2.06Zm15.89-7.64c-1.73,2.05-4.45,4.53-6.19,3.94l-.12-.04-.07-.11c-.85-1.3,2.01-7.08,4.41-10.75.19-.3.21-.68.05-.99-.17-.32-.49-.53-.84-.54-.96-.02-3.14,1.09-7.95,6.71l-1.57,1.84,3.01-7.12c.11-.24.11-.51.01-.75-.1-.25-.29-.44-.53-.54-.13-.06-.26-.08-.39-.08-.38,0-.75.22-.91.6l-4.13,9.75c.49-.15,1.04-.07,1.49.25.38.26.63.66.71,1.12.08.46-.03.92-.29,1.3,2.4-3.08,4.28-5.28,5.55-6.69l1.56-1.74-.94,2.14c-1.18,2.7-1.59,4.77-1.17,6,.24.72.76,1.25,1.46,1.49,2.17.76,4.54-.72,6.37-2.39-.02-.15-.03-.31-.03-.47-.01-.84.17-1.85.51-2.93Zm2.41-1.55c-.31-.22-.71-.23-1.02-.07h-.01c-.68,1.58-1.11,3.11-1.14,4.32,1.28-1.3,2.19-2.56,2.41-2.87.31-.45.2-1.06-.24-1.38Zm-16.17,4.97c-.05-.26-.19-.49-.41-.64-.44-.32-1.06-.21-1.38.24-.11.15-.22.31-.33.46l-1.26,2.97c-.17.39-.07.83.23,1.1,1.39-1.22,2.53-2.75,2.98-3.39.12-.18.18-.38.18-.58,0-.05,0-.11-.01-.16Z"/><path class="cls-6" d="m400.14,53.93c.82-1.88,1.37-3.25,1.72-4.33.16-.51-.11-1.06-.61-1.24-.51-.18-1.07.09-1.26.58-.43,1.15-.94,2.45-1.51,3.83-.5,1.15-1.05,2.38-1.63,3.63l-.06.15c-.85,1.85-1.8,3.95-2.63,5.92l-.27.58-.4-.21c-.55-.41-1.18-.62-1.86-.62-.53,0-1.1.13-1.69.39-2.37,1.05-4.82,4.16-6.35,7.28.36-.01.74.09,1.06.32.29.2.49.48.61.78,1.33-2.79,3.52-5.7,5.48-6.57.29-.12.53-.19.76-.21.55-.05.83.22.97.34.06.06.12.11.19.14l.32.18-.17.32c-3.34,6.57-5.95,10.3-7.74,11.08-.16.07-.3.1-.43.1-.06,0-.12-.01-.17-.03-.29-.12-.44-.48-.44-1.07-.01-.45.07-.97.21-1.54-.52.64-1.25,1.48-2.12,2.3.23,1.37,1.06,1.93,1.58,2.14.37.15.76.2,1.17.17.32-.03.66-.12.99-.26,1.33-.58,2.93-2.27,4.77-5.04l.61-.92.08,1.1c.08,1.28.48,2.23,1.21,2.9,2.52,2.29,6.01-.04,7.67-1.78.37-.39.36-1.02-.03-1.4-.4-.37-1.02-.36-1.4.03-.03.03-3.19,3.25-4.9,1.69-1.3-1.19-.67-4.66,2.05-11.23,1.39-2.9,2.81-6.09,4.22-9.5Zm-15.92,16.89c-.31-.22-.71-.23-1.02-.07h-.01c-.68,1.58-1.11,3.11-1.14,4.32,1.28-1.3,2.19-2.56,2.41-2.87.31-.45.2-1.06-.24-1.38Z"/><path class="cls-6" d="m426.36,67.63c-.18-.23-.43-.37-.71-.39l-2.05,3.06c.97-.32,1.86-.76,2.57-1.29.21-.16.34-.39.38-.65.04-.26-.03-.52-.19-.73Zm-4.43,1.08l-.72.16.3-.68c.72-1.58,1-2.98.84-4.05-.2-1.24-1.02-2.14-2.25-2.45-.26-.06-.53-.1-.81-.1-3.35,0-7.59,4.71-9.26,8.36-1.41,3.08-1.16,5.58.67,6.85.42.29.9.44,1.45.44.77,0,1.64-.3,2.59-.89,1.64-1.03,3.6-3.05,5.13-5.29l.11-.16h.19c.78-.02,1.57-.12,2.32-.29l1.86-2.78c-.67.38-1.51.69-2.42.88Zm-4.5,2.35c-1.23,1.59-2.56,2.87-3.74,3.61-.7.43-1.2.59-1.53.59-.15,0-.26-.03-.33-.08-1.38-.96-.46-3.4,0-4.41.5-1.1,1.19-2.2,2.03-3.26l.47-.58.19.71c.31,1.14,1,1.83,1.52,2.2.35.26.76.47,1.22.64l.49.17-.32.41Zm1.63-2.42l-.14.24-.26-.05c-.59-.12-1.08-.32-1.46-.59-.33-.24-1.32-.96-.62-3.35l.03-.12.1-.07c.7-.52,1.71-1.13,2.54-1.13.13,0,.25,0,.36.04.48.12.71.36.78.83.2,1.28-.75,3.18-1.33,4.2Z"/><path class="cls-6" d="m441.67,70.05c-.2-.21-.48-.31-.75-.29-.28.92-.47,1.87-.52,2.8.64-.53,1.09-.96,1.25-1.11.2-.19.3-.45.3-.71s-.09-.5-.28-.69Zm-9.47,3.78l-.11-.06-.05-.12c-.59-1.44,3.3-6.58,6.34-9.74.25-.25.34-.62.24-.96-.1-.34-.38-.61-.72-.69-.95-.22-3.3.49-9.07,5.1l-1.58,1.27c-.08.39-.31.73-.63.98-.98.74-2.27,1.31-3.66,1.66l-1.99,2.97c-.28.42-.2.98.18,1.31.16.14.37.22.59.23.28.01.52-.08.72-.26,4.19-3.87,7.38-6.44,9.33-7.92l1.86-1.41-1.33,1.93c-1.67,2.42-2.46,4.38-2.28,5.67.11.75.52,1.37,1.16,1.74,2.59,1.5,6.21-.66,8.46-2.37-.02-.89.09-1.86.35-2.89-1.91,1.76-5.93,4.63-7.81,3.56Zm-1.23-12.75c-.22-.15-.49-.2-.75-.15-.26.05-.48.2-.63.42l-3.49,5.22c.33.1.64.3.86.6.26.35.38.75.34,1.17l3.94-5.89c.3-.45.18-1.07-.27-1.37Zm-4.61,6.55c-.18-.23-.43-.37-.71-.39l-2.05,3.06c.97-.32,1.86-.76,2.57-1.29.21-.16.34-.39.38-.65.04-.26-.03-.52-.19-.73Z"/><path class="cls-6" d="m458.19,51.9c-.37-.43-.83-.59-1.33-.59-1.41,0-3.11,1.3-3.78,1.83-3.08,2.36-7.79,7.59-10.48,12.62l-.05.08c-.13.13-.21.29-.25.47l-.03.1c-.4.8-.8,1.69-1.12,2.61.39.03.77.21,1.06.51.33.34.49.77.49,1.21.27-1.05.72-2.22,1.35-3.47l.05-.1.09-.06c6.68-4.03,14.02-9.57,14.58-13.02.14-.84-.07-1.59-.58-2.19Zm-1.39,1.94c-.46,2.29-5.65,6.22-8.7,8.36l-1.97,1.38,1.45-1.91c3.23-4.25,7.04-7.6,8.72-8.25l.64-.26-.14.68Zm-2.67,18.24c-.18-.19-.42-.31-.69-.32-.25-.01-.48.07-.67.23-1.12,1.55-1.85,2.95-1.93,3.97,1.68-1.1,2.95-2.23,3.22-2.48.4-.36.43-.99.07-1.4Zm-3.21,1.41c-2.04,1.52-4.64,2.98-6.39,2.8-.68-.08-1.13-.35-1.49-.87-.65-.95-.82-2.3-.5-3.95-.09.19-.21.37-.37.52-.2.2-.84.8-1.76,1.52.07,1.08.37,2.12,1,3.03.67.98,1.66,1.57,2.84,1.71,1.89.19,4.04-.74,5.85-1.82-.02-.12-.02-.25-.02-.39.03-.75.34-1.62.84-2.55Zm-8.38-2.02c.1-.22.16-.46.16-.7-.07.24-.13.48-.16.7Zm-.87-1.42c-.2-.21-.48-.31-.75-.29-.28.92-.47,1.87-.52,2.8.64-.53,1.09-.96,1.25-1.11.2-.19.3-.45.3-.71s-.09-.5-.28-.69Z"/><path class="cls-6" d="m463.61,77.61l-.43-.17.16-.42c2.25-3.43,3.57-6.33,3.8-8.39.05-.41-.16-.81-.53-.99-.36-.19-.81-.13-1.11.15-5.07,4.62-10.45,8.35-12.27,8.48l-.5.04.11-.5c.03-.14.08-.3.16-.47-.58.45-1.29.97-2.08,1.46.1.35.28.6.44.78,1.55,1.64,5.49-.02,11.4-4.81l1.5-1.22-.93,1.69c-.73,1.31-1.64,2.74-2.73,4.25l-.08.12-.15.03c-5.4,1.08-14.96,6.14-18.43,10.51-1.63,2.05-1.95,3.94-.91,5.45.31.45.89,1.02,1.89,1.16.5.07,1.06.03,1.68-.12,4.66-1.15,12.24-8.66,17-15.13l.11-.13.17-.02c.43-.03.77,0,1.01.1.24.09.51.09.75-.02.25-.11.43-.3.53-.55.05-.12.07-.24.07-.36,0-.4-.24-.77-.63-.92Zm-5.88,3.6c-4.23,5.1-10.07,10.64-13.61,11.51-.13.04-.39.1-.67.1s-.6-.07-.79-.34c-.5-.73-.22-1.77.83-3.1,2.74-3.45,8.91-6.88,13.82-8.76l1.33-.51-.91,1.1Zm3.2-16.55c-.18-.19-.43-.3-.69-.31-.28-.02-.52.08-.71.26-2.14,1.99-4.36,4.29-6.02,6.4.45.04.87.24,1.17.57.18.2.31.43.37.68,1.48-1.86,3.56-4.09,5.83-6.2.19-.18.3-.43.31-.69s-.08-.52-.26-.71Zm-6.8,7.42c-.18-.19-.42-.31-.69-.32-.25-.01-.48.07-.67.23-1.12,1.55-1.85,2.95-1.93,3.97,1.68-1.1,2.95-2.23,3.22-2.48.4-.36.43-.99.07-1.4Z"/><path class="cls-6" d="m491.36,77.9h-.75s.45-.6.45-.6c1.06-1.38,1.66-2.68,1.74-3.76.09-1.26-.51-2.31-1.64-2.9-.51-.26-1.08-.38-1.7-.38-3.25,0-7.75,3.26-9.98,6.15-2.07,2.68-2.4,5.16-.9,6.82.34.38.78.64,1.31.76.75.18,1.66.08,2.72-.28,1.84-.63,4.21-2.16,6.21-3.99l.14-.13.19.04c.76.17,1.55.25,2.33.25l2.43-2.29c-.74.22-1.62.32-2.55.31Zm-4.92,1.27c-1.56,1.26-3.14,2.21-4.47,2.66-.55.19-.97.27-1.29.27s-.53-.08-.63-.19c-1.12-1.25.32-3.42,1-4.3.74-.95,1.65-1.86,2.72-2.71l.58-.46.03.74c.04,1.17.55,2,.98,2.49.28.32.63.62,1.05.89l.43.28-.4.33Zm2.13-1.99l-.18.2-.25-.11c-.55-.25-.98-.55-1.29-.9-.26-.31-1.07-1.24.15-3.4l.07-.11.11-.05c.8-.35,1.92-.72,2.73-.53.12.03.24.07.34.12.52.27.6.59.57.99-.09,1.3-1.45,2.93-2.25,3.79Zm7.34.66c-.12-.27-.35-.46-.61-.54l-2.67,2.53c1.02-.09,1.98-.32,2.78-.68.24-.11.43-.3.52-.55.1-.25.09-.51-.02-.76Z"/><path class="cls-6" d="m495.91,77.84c-.12-.27-.35-.46-.61-.54l-2.67,2.53c1.02-.09,1.98-.32,2.78-.68.24-.11.43-.3.52-.55.1-.25.09-.51-.02-.76Zm5.94-5.36c-.37-.39-1-.41-1.39-.04l-4.57,4.31c.31.18.56.45.71.79.17.38.2.81.07,1.2l5.14-4.86c.4-.37.42-1,.04-1.4Zm6.5,2.71c-.88-.43-3.32-.27-9.98,2.94l-1.81.88c-.17.37-.47.66-.84.82-1.11.49-2.51.77-3.94.8l-2.61,2.46c-.36.34-.41.9-.11,1.31.13.17.31.3.52.36.26.07.53.04.77-.1,4.95-2.84,8.63-4.63,10.85-5.63l2.13-.96-1.72,1.58c-2.17,1.99-3.38,3.73-3.49,5.02-.06.75.2,1.44.74,1.95,1.95,1.82,5.36.99,7.89-.06.1-.86.35-1.69.74-2.49-2.55,1.26-5.95,2.34-7.28,1.12l-.09-.09-.02-.12c-.26-1.54,4.68-5.68,8.35-8.08.3-.19.47-.53.45-.89-.02-.35-.23-.67-.55-.82Zm1.94,8.43c-.28-.47-.89-.62-1.36-.34-.06.04-.12.07-.18.1-.6.89-1.01,1.85-1.19,2.84,1.22-.55,2.13-1.09,2.39-1.24.11-.06.2-.14.27-.24l.12-.21c.06-.13.09-.26.09-.4,0-.17-.04-.35-.14-.51Z"/><path class="cls-6" d="m510.29,83.62c-.28-.47-.89-.62-1.36-.34-.06.04-.12.07-.18.1-.6.89-1.01,1.85-1.19,2.84,1.22-.55,2.13-1.09,2.39-1.24.11-.06.2-.14.27-.24l.12-.21c.06-.13.09-.26.09-.4,0-.17-.04-.35-.14-.51Zm12.57,6.05c-.26-.48-.86-.66-1.34-.41-2.73,1.46-8.09,2.09-10.66.68-.89-.48-1.36-1.16-1.43-2.06-.05-.63.02-1.26.21-1.87-.53.29-1.29.69-2.19,1.07-.02.32-.02.64.01.96.12,1.57.97,2.83,2.45,3.64.36.2.76.37,1.2.52,3.48,1.15,8.6.28,11.34-1.19.23-.13.4-.33.48-.59.08-.25.05-.52-.07-.75Zm-.91-10.7c-.82-.6-1.9-.86-3.07-.86-2.02,0-4.32.75-6.13,1.76-1.3.72-2.39,1.58-3.23,2.52.56.03,1.1.32,1.41.84.36.59.32,1.3-.04,1.84.12.13.26.23.43.28.13.04,3.17,1.03,6.22.32.04-.01,5.13-1.45,5.67-4.05.11-.56.1-1.65-1.26-2.65Zm-.71,2.34c-.31.86-2.81,2.12-4.15,2.43-.64.15-1.29.21-1.9.21-1.54,0-2.84-.35-3.16-.45l-.67-.19.53-.45c.69-.59,1.37-1.01,1.83-1.26,2.3-1.28,4.97-1.82,6.5-1.31.22.07.4.16.56.28.2.14.34.28.42.41l.11.16-.07.17Z"/><path class="cls-5" d="m310.07,87.45l-.63.4.06-.74c.13-1.73-.08-3.15-.61-4.1-.55-.99-1.48-1.54-2.59-1.54-.12,0-.24,0-.36.01-3.53.36-6.28,6.88-6.62,11.21-.27,3.38.81,5.64,2.97,6.21.49.13,1,.11,1.51-.08.72-.26,1.44-.84,2.13-1.73,1.19-1.52,2.34-4.1,3.01-6.73l.05-.18.18-.07c.73-.28,1.44-.66,2.1-1.08l.76-3.22c-.5.58-1.18,1.15-1.96,1.64Zm-3.42,3.75c-.61,1.91-1.42,3.57-2.28,4.68-.65.83-1.17,1.12-1.48,1.12-.03,0-.06,0-.09-.01-1.63-.43-1.6-3.04-1.51-4.14.09-1.21.36-2.47.79-3.76l.23-.71.43.61c.68.95,1.56,1.37,2.18,1.55.42.11.86.16,1.37.17h.52l-.16.49Zm.7-2.83l-.05.27-.26.04c-.26.04-.5.06-.73.06-.31,0-.59-.03-.84-.11-.39-.11-1.58-.45-1.74-2.93v-.13s.06-.1.06-.1c.48-.73,1.22-1.65,2-1.93.12-.05.24-.08.35-.09.49-.05.79.1,1.02.52.63,1.13.39,3.24.19,4.4Zm6.94-2.83c-.06-.26-.21-.48-.43-.63-.22-.14-.49-.19-.75-.13-.02,0-.05.01-.07.02l-.84,3.55c.8-.62,1.47-1.34,1.95-2.07.11-.16.16-.34.16-.53,0-.07-.01-.14-.02-.21Z"/><path class="cls-5" d="m314.29,85.54c-.06-.26-.21-.48-.43-.63-.22-.14-.49-.19-.75-.13-.02,0-.05.01-.07.02l-.84,3.55c.8-.62,1.47-1.34,1.95-2.07.11-.16.16-.34.16-.53,0-.07-.01-.14-.02-.21Zm14.75-3.74c-.49-.24-1.09-.03-1.32.46-.03.06-.05.11-.09.17-.01,1.07.18,2.08.57,3.01.78-1.23,1.25-2.22,1.3-2.33.07-.14.1-.28.1-.43,0-.36-.21-.71-.56-.88Zm-2.08,1.89c-1.43,2.48-3.67,5.26-5.47,4.97l-.13-.02-.09-.09c-1.06-1.15.79-7.33,2.53-11.35.14-.33.1-.7-.11-.99-.22-.28-.57-.43-.92-.39-.97.13-2.92,1.61-6.7,7.96l-1.03,1.72c.06.42-.03.83-.26,1.19-.53.82-1.28,1.61-2.18,2.31-.21.17-.44.33-.67.49l-.82,3.5c-.11.48.16.98.63,1.15.21.08.43.08.64,0,.25-.08.46-.25.58-.49,2.57-5.1,4.66-8.62,5.96-10.69l1.25-1.97-.57,2.26c-.71,2.86-.76,4.98-.14,6.12.36.66.96,1.09,1.69,1.22,2.61.43,5.02-2.17,6.56-4.43-.39-.77-.64-1.6-.75-2.48Zm-10.48-6.1c-.14-.23-.36-.38-.62-.44-.08-.02-.15-.03-.23-.03-.44,0-.85.31-.96.76l-1.44,6.13c.36-.02.73.07,1.04.27.34.23.59.56.7.94l1.63-6.88c.06-.26.01-.53-.12-.75Z"/><path class="cls-5" d="m338.72,72.99c-.21-.53-.82-1.43-2.5-1.51-.07-.01-.13-.01-.19-.01-2.72,0-5.52,2.99-6.99,5.83-.69,1.33-1.13,2.64-1.31,3.89.48-.28,1.09-.33,1.63-.07.62.3.98.9.99,1.54.16.05.34.05.51,0,.04,0,3.19-.86,5.37-3.16.91-1.02,3.33-4.41,2.49-6.51Zm-3.93,5.15c-1.6,1.68-3.91,2.45-4.36,2.59l-.66.2.19-.66c.26-.88.59-1.6.83-2.06,1.21-2.33,3.15-4.26,4.7-4.68.22-.06.43-.09.62-.08.24,0,.44.05.58.11l.18.07.04.19c.21.88-1.17,3.31-2.12,4.32Zm8.08,1.76c-.23-.13-.5-.16-.75-.08-.25.07-.46.24-.59.48-1.47,2.72-5.59,6.2-8.52,6.45-1.49.13-2.12-.67-2.32-.93-.39-.5-.68-1.06-.86-1.68-.28.53-.7,1.28-1.24,2.09.16.28.34.55.54.81.97,1.24,2.37,1.82,4.05,1.68.41-.03.84-.11,1.29-.23,3.53-.96,7.32-4.51,8.8-7.25.26-.48.08-1.09-.4-1.34Zm-13.83,1.9c-.49-.24-1.09-.03-1.32.46-.03.06-.05.11-.09.17-.01,1.07.18,2.08.57,3.01.78-1.23,1.25-2.22,1.3-2.33.07-.14.1-.28.1-.43,0-.36-.21-.71-.56-.88Z"/><path class="cls-5" d="m368.05,75.79c-.05-.26-.19-.49-.41-.64-.44-.32-1.06-.21-1.38.24-.11.15-.22.31-.33.46l-1.26,2.97c-.17.39-.07.83.23,1.1,1.39-1.22,2.53-2.75,2.98-3.39.12-.18.18-.38.18-.58,0-.05,0-.11-.01-.16Zm-4.07,2.74l.35-.83c-1.08,1.11-2.18,1.95-2.86,2.02l-.3.03-.09-.3c-.44-1.42.56-6.1,1.77-9.82.16-.49-.09-1.03-.58-1.22-.48-.2-1.04.02-1.26.5l-.24.53-.4-.42c-.47-.55-.98-.95-1.51-1.17-.35-.15-.71-.23-1.07-.23-.38,0-.75.09-1.12.24-2.42,1.06-7.49,10.55-6.8,13.77.23,1.08.98,1.71,2.1,1.71,1.73-.01,3.93-1.94,6.38-5.58l.74-1.09-.05,1.31c-.04,1.17.08,2.04.38,2.61.33.63.8.89,1.15.99.41.13.85.15,1.31.05.83-.16,1.66-.63,2.44-1.23-.47-.49-.62-1.22-.34-1.87Zm-4.4-6.74c-2.77,5.25-5.72,9.08-7.34,9.53l-.45.12-.02-.47c-.05-.87.43-2.86,1.91-5.8,1.43-2.83,3.09-5.12,3.75-5.48.1-.04.16-.06.22-.07.2-.04.35.01.44.05.71.3,1.32,1.43,1.5,1.77l.08.18-.09.17Z"/><path class="cls-5" d="m365.92,80.01c-.06.06-.12.12-.19.18.26-.04.49-.18.64-.39.48-.65.94-1.26,1.39-1.85-.5.63-1.13,1.37-1.84,2.06Zm15.89-7.64c-1.73,2.05-4.45,4.53-6.19,3.94l-.12-.04-.07-.11c-.85-1.3,2.01-7.08,4.41-10.75.19-.3.21-.68.05-.99-.17-.32-.49-.53-.84-.54-.96-.02-3.14,1.09-7.95,6.71l-1.57,1.84,3.01-7.12c.11-.24.11-.51.01-.75-.1-.25-.29-.44-.53-.54-.13-.06-.26-.08-.39-.08-.38,0-.75.22-.91.6l-4.13,9.75c.49-.15,1.04-.07,1.49.25.38.26.63.66.71,1.12.08.46-.03.92-.29,1.3,2.4-3.08,4.28-5.28,5.55-6.69l1.56-1.74-.94,2.14c-1.18,2.7-1.59,4.77-1.17,6,.24.72.76,1.25,1.46,1.49,2.17.76,4.54-.72,6.37-2.39-.02-.15-.03-.31-.03-.47-.01-.84.17-1.85.51-2.93Zm2.41-1.55c-.31-.22-.71-.23-1.02-.07h-.01c-.68,1.58-1.11,3.11-1.14,4.32,1.28-1.3,2.19-2.56,2.41-2.87.31-.45.2-1.06-.24-1.38Zm-16.17,4.97c-.05-.26-.19-.49-.41-.64-.44-.32-1.06-.21-1.38.24-.11.15-.22.31-.33.46l-1.26,2.97c-.17.39-.07.83.23,1.1,1.39-1.22,2.53-2.75,2.98-3.39.12-.18.18-.38.18-.58,0-.05,0-.11-.01-.16Z"/><path class="cls-5" d="m400.14,53.93c.82-1.88,1.37-3.25,1.72-4.33.16-.51-.11-1.06-.61-1.24-.51-.18-1.07.09-1.26.58-.43,1.15-.94,2.45-1.51,3.83-.5,1.15-1.05,2.38-1.63,3.63l-.06.15c-.85,1.85-1.8,3.95-2.63,5.92l-.27.58-.4-.21c-.55-.41-1.18-.62-1.86-.62-.53,0-1.1.13-1.69.39-2.37,1.05-4.82,4.16-6.35,7.28.36-.01.74.09,1.06.32.29.2.49.48.61.78,1.33-2.79,3.52-5.7,5.48-6.57.29-.12.53-.19.76-.21.55-.05.83.22.97.34.06.06.12.11.19.14l.32.18-.17.32c-3.34,6.57-5.95,10.3-7.74,11.08-.16.07-.3.1-.43.1-.06,0-.12-.01-.17-.03-.29-.12-.44-.48-.44-1.07-.01-.45.07-.97.21-1.54-.52.64-1.25,1.48-2.12,2.3.23,1.37,1.06,1.93,1.58,2.14.37.15.76.2,1.17.17.32-.03.66-.12.99-.26,1.33-.58,2.93-2.27,4.77-5.04l.61-.92.08,1.1c.08,1.28.48,2.23,1.21,2.9,2.52,2.29,6.01-.04,7.67-1.78.37-.39.36-1.02-.03-1.4-.4-.37-1.02-.36-1.4.03-.03.03-3.19,3.25-4.9,1.69-1.3-1.19-.67-4.66,2.05-11.23,1.39-2.9,2.81-6.09,4.22-9.5Zm-15.92,16.89c-.31-.22-.71-.23-1.02-.07h-.01c-.68,1.58-1.11,3.11-1.14,4.32,1.28-1.3,2.19-2.56,2.41-2.87.31-.45.2-1.06-.24-1.38Z"/><path class="cls-5" d="m426.36,67.63c-.18-.23-.43-.37-.71-.39l-2.05,3.06c.97-.32,1.86-.76,2.57-1.29.21-.16.34-.39.38-.65.04-.26-.03-.52-.19-.73Zm-4.43,1.08l-.72.16.3-.68c.72-1.58,1-2.98.84-4.05-.2-1.24-1.02-2.14-2.25-2.45-.26-.06-.53-.1-.81-.1-3.35,0-7.59,4.71-9.26,8.36-1.41,3.08-1.16,5.58.67,6.85.42.29.9.44,1.45.44.77,0,1.64-.3,2.59-.89,1.64-1.03,3.6-3.05,5.13-5.29l.11-.16h.19c.78-.02,1.57-.12,2.32-.29l1.86-2.78c-.67.38-1.51.69-2.42.88Zm-4.5,2.35c-1.23,1.59-2.56,2.87-3.74,3.61-.7.43-1.2.59-1.53.59-.15,0-.26-.03-.33-.08-1.38-.96-.46-3.4,0-4.41.5-1.1,1.19-2.2,2.03-3.26l.47-.58.19.71c.31,1.14,1,1.83,1.52,2.2.35.26.76.47,1.22.64l.49.17-.32.41Zm1.63-2.42l-.14.24-.26-.05c-.59-.12-1.08-.32-1.46-.59-.33-.24-1.32-.96-.62-3.35l.03-.12.1-.07c.7-.52,1.71-1.13,2.54-1.13.13,0,.25,0,.36.04.48.12.71.36.78.83.2,1.28-.75,3.18-1.33,4.2Z"/><path class="cls-5" d="m441.67,70.05c-.2-.21-.48-.31-.75-.29-.28.92-.47,1.87-.52,2.8.64-.53,1.09-.96,1.25-1.11.2-.19.3-.45.3-.71s-.09-.5-.28-.69Zm-9.47,3.78l-.11-.06-.05-.12c-.59-1.44,3.3-6.58,6.34-9.74.25-.25.34-.62.24-.96-.1-.34-.38-.61-.72-.69-.95-.22-3.3.49-9.07,5.1l-1.58,1.27c-.08.39-.31.73-.63.98-.98.74-2.27,1.31-3.66,1.66l-1.99,2.97c-.28.42-.2.98.18,1.31.16.14.37.22.59.23.28.01.52-.08.72-.26,4.19-3.87,7.38-6.44,9.33-7.92l1.86-1.41-1.33,1.93c-1.67,2.42-2.46,4.38-2.28,5.67.11.75.52,1.37,1.16,1.74,2.59,1.5,6.21-.66,8.46-2.37-.02-.89.09-1.86.35-2.89-1.91,1.76-5.93,4.63-7.81,3.56Zm-1.23-12.75c-.22-.15-.49-.2-.75-.15-.26.05-.48.2-.63.42l-3.49,5.22c.33.1.64.3.86.6.26.35.38.75.34,1.17l3.94-5.89c.3-.45.18-1.07-.27-1.37Zm-4.61,6.55c-.18-.23-.43-.37-.71-.39l-2.05,3.06c.97-.32,1.86-.76,2.57-1.29.21-.16.34-.39.38-.65.04-.26-.03-.52-.19-.73Z"/><path class="cls-5" d="m458.19,51.9c-.37-.43-.83-.59-1.33-.59-1.41,0-3.11,1.3-3.78,1.83-3.08,2.36-7.79,7.59-10.48,12.62l-.05.08c-.13.13-.21.29-.25.47l-.03.1c-.4.8-.8,1.69-1.12,2.61.39.03.77.21,1.06.51.33.34.49.77.49,1.21.27-1.05.72-2.22,1.35-3.47l.05-.1.09-.06c6.68-4.03,14.02-9.57,14.58-13.02.14-.84-.07-1.59-.58-2.19Zm-1.39,1.94c-.46,2.29-5.65,6.22-8.7,8.36l-1.97,1.38,1.45-1.91c3.23-4.25,7.04-7.6,8.72-8.25l.64-.26-.14.68Zm-2.67,18.24c-.18-.19-.42-.31-.69-.32-.25-.01-.48.07-.67.23-1.12,1.55-1.85,2.95-1.93,3.97,1.68-1.1,2.95-2.23,3.22-2.48.4-.36.43-.99.07-1.4Zm-3.21,1.41c-2.04,1.52-4.64,2.98-6.39,2.8-.68-.08-1.13-.35-1.49-.87-.65-.95-.82-2.3-.5-3.95-.09.19-.21.37-.37.52-.2.2-.84.8-1.76,1.52.07,1.08.37,2.12,1,3.03.67.98,1.66,1.57,2.84,1.71,1.89.19,4.04-.74,5.85-1.82-.02-.12-.02-.25-.02-.39.03-.75.34-1.62.84-2.55Zm-8.38-2.02c.1-.22.16-.46.16-.7-.07.24-.13.48-.16.7Zm-.87-1.42c-.2-.21-.48-.31-.75-.29-.28.92-.47,1.87-.52,2.8.64-.53,1.09-.96,1.25-1.11.2-.19.3-.45.3-.71s-.09-.5-.28-.69Z"/><path class="cls-5" d="m463.61,77.61l-.43-.17.16-.42c2.25-3.43,3.57-6.33,3.8-8.39.05-.41-.16-.81-.53-.99-.36-.19-.81-.13-1.11.15-5.07,4.62-10.45,8.35-12.27,8.48l-.5.04.11-.5c.03-.14.08-.3.16-.47-.58.45-1.29.97-2.08,1.46.1.35.28.6.44.78,1.55,1.64,5.49-.02,11.4-4.81l1.5-1.22-.93,1.69c-.73,1.31-1.64,2.74-2.73,4.25l-.08.12-.15.03c-5.4,1.08-14.96,6.14-18.43,10.51-1.63,2.05-1.95,3.94-.91,5.45.31.45.89,1.02,1.89,1.16.5.07,1.06.03,1.68-.12,4.66-1.15,12.24-8.66,17-15.13l.11-.13.17-.02c.43-.03.77,0,1.01.1.24.09.51.09.75-.02.25-.11.43-.3.53-.55.05-.12.07-.24.07-.36,0-.4-.24-.77-.63-.92Zm-5.88,3.6c-4.23,5.1-10.07,10.64-13.61,11.51-.13.04-.39.1-.67.1s-.6-.07-.79-.34c-.5-.73-.22-1.77.83-3.1,2.74-3.45,8.91-6.88,13.82-8.76l1.33-.51-.91,1.1Zm3.2-16.55c-.18-.19-.43-.3-.69-.31-.28-.02-.52.08-.71.26-2.14,1.99-4.36,4.29-6.02,6.4.45.04.87.24,1.17.57.18.2.31.43.37.68,1.48-1.86,3.56-4.09,5.83-6.2.19-.18.3-.43.31-.69s-.08-.52-.26-.71Zm-6.8,7.42c-.18-.19-.42-.31-.69-.32-.25-.01-.48.07-.67.23-1.12,1.55-1.85,2.95-1.93,3.97,1.68-1.1,2.95-2.23,3.22-2.48.4-.36.43-.99.07-1.4Z"/><path class="cls-5" d="m491.36,77.9h-.75s.45-.6.45-.6c1.06-1.38,1.66-2.68,1.74-3.76.09-1.26-.51-2.31-1.64-2.9-.51-.26-1.08-.38-1.7-.38-3.25,0-7.75,3.26-9.98,6.15-2.07,2.68-2.4,5.16-.9,6.82.34.38.78.64,1.31.76.75.18,1.66.08,2.72-.28,1.84-.63,4.21-2.16,6.21-3.99l.14-.13.19.04c.76.17,1.55.25,2.33.25l2.43-2.29c-.74.22-1.62.32-2.55.31Zm-4.92,1.27c-1.56,1.26-3.14,2.21-4.47,2.66-.55.19-.97.27-1.29.27s-.53-.08-.63-.19c-1.12-1.25.32-3.42,1-4.3.74-.95,1.65-1.86,2.72-2.71l.58-.46.03.74c.04,1.17.55,2,.98,2.49.28.32.63.62,1.05.89l.43.28-.4.33Zm2.13-1.99l-.18.2-.25-.11c-.55-.25-.98-.55-1.29-.9-.26-.31-1.07-1.24.15-3.4l.07-.11.11-.05c.8-.35,1.92-.72,2.73-.53.12.03.24.07.34.12.52.27.6.59.57.99-.09,1.3-1.45,2.93-2.25,3.79Zm7.34.66c-.12-.27-.35-.46-.61-.54l-2.67,2.53c1.02-.09,1.98-.32,2.78-.68.24-.11.43-.3.52-.55.1-.25.09-.51-.02-.76Z"/><path class="cls-5" d="m495.91,77.84c-.12-.27-.35-.46-.61-.54l-2.67,2.53c1.02-.09,1.98-.32,2.78-.68.24-.11.43-.3.52-.55.1-.25.09-.51-.02-.76Zm5.94-5.36c-.37-.39-1-.41-1.39-.04l-4.57,4.31c.31.18.56.45.71.79.17.38.2.81.07,1.2l5.14-4.86c.4-.37.42-1,.04-1.4Zm6.5,2.71c-.88-.43-3.32-.27-9.98,2.94l-1.81.88c-.17.37-.47.66-.84.82-1.11.49-2.51.77-3.94.8l-2.61,2.46c-.36.34-.41.9-.11,1.31.13.17.31.3.52.36.26.07.53.04.77-.1,4.95-2.84,8.63-4.63,10.85-5.63l2.13-.96-1.72,1.58c-2.17,1.99-3.38,3.73-3.49,5.02-.06.75.2,1.44.74,1.95,1.95,1.82,5.36.99,7.89-.06.1-.86.35-1.69.74-2.49-2.55,1.26-5.95,2.34-7.28,1.12l-.09-.09-.02-.12c-.26-1.54,4.68-5.68,8.35-8.08.3-.19.47-.53.45-.89-.02-.35-.23-.67-.55-.82Zm1.94,8.43c-.28-.47-.89-.62-1.36-.34-.06.04-.12.07-.18.1-.6.89-1.01,1.85-1.19,2.84,1.22-.55,2.13-1.09,2.39-1.24.11-.06.2-.14.27-.24l.12-.21c.06-.13.09-.26.09-.4,0-.17-.04-.35-.14-.51Z"/><path class="cls-5" d="m510.29,83.62c-.28-.47-.89-.62-1.36-.34-.06.04-.12.07-.18.1-.6.89-1.01,1.85-1.19,2.84,1.22-.55,2.13-1.09,2.39-1.24.11-.06.2-.14.27-.24l.12-.21c.06-.13.09-.26.09-.4,0-.17-.04-.35-.14-.51Zm12.57,6.05c-.26-.48-.86-.66-1.34-.41-2.73,1.46-8.09,2.09-10.66.68-.89-.48-1.36-1.16-1.43-2.06-.05-.63.02-1.26.21-1.87-.53.29-1.29.69-2.19,1.07-.02.32-.02.64.01.96.12,1.57.97,2.83,2.45,3.64.36.2.76.37,1.2.52,3.48,1.15,8.6.28,11.34-1.19.23-.13.4-.33.48-.59.08-.25.05-.52-.07-.75Zm-.91-10.7c-.82-.6-1.9-.86-3.07-.86-2.02,0-4.32.75-6.13,1.76-1.3.72-2.39,1.58-3.23,2.52.56.03,1.1.32,1.41.84.36.59.32,1.3-.04,1.84.12.13.26.23.43.28.13.04,3.17,1.03,6.22.32.04-.01,5.13-1.45,5.67-4.05.11-.56.1-1.65-1.26-2.65Zm-.71,2.34c-.31.86-2.81,2.12-4.15,2.43-.64.15-1.29.21-1.9.21-1.54,0-2.84-.35-3.16-.45l-.67-.19.53-.45c.69-.59,1.37-1.01,1.83-1.26,2.3-1.28,4.97-1.82,6.5-1.31.22.07.4.16.56.28.2.14.34.28.42.41l.11.16-.07.17Z"/><path class="cls-4" d="m442.54,71.47c.1-.22.16-.46.16-.7-.07.24-.13.48-.16.7Z"/><path class="cls-4" d="m442.54,71.47c.1-.22.16-.46.16-.7-.07.24-.13.48-.16.7Z"/></svg>